<svg width="103" height="42" viewBox="0 0 103 42" fill="none" xmlns="http://www.w3.org/2000/svg">
<path d="M40.4697 40.4697C40.1768 40.7626 40.1768 41.2374 40.4697 41.5303C40.7626 41.8232 41.2374 41.8232 41.5303 41.5303L40.4697 40.4697ZM61 21L61.5303 21.5303L62.0607 21L61.5303 20.4697L61 21ZM41.5303 0.469669C41.2374 0.176777 40.7626 0.176777 40.4697 0.469669C40.1768 0.762562 40.1768 1.23744 40.4697 1.53033L41.5303 0.469669ZM41.5303 41.5303L61.5303 21.5303L60.4697 20.4697L40.4697 40.4697L41.5303 41.5303ZM61.5303 20.4697L41.5303 0.469669L40.4697 1.53033L60.4697 21.5303L61.5303 20.4697Z" fill="white"/>
<path d="M80.4697 40.4697C80.1768 40.7626 80.1768 41.2374 80.4697 41.5303C80.7626 41.8232 81.2374 41.8232 81.5303 41.5303L80.4697 40.4697ZM101 21L101.53 21.5303L102.061 21L101.53 20.4697L101 21ZM81.5303 0.469669C81.2374 0.176777 80.7626 0.176777 80.4697 0.469669C80.1768 0.762562 80.1768 1.23744 80.4697 1.53033L81.5303 0.469669ZM81.5303 41.5303L101.53 21.5303L100.47 20.4697L80.4697 40.4697L81.5303 41.5303ZM101.53 20.4697L81.5303 0.469669L80.4697 1.53033L100.47 21.5303L101.53 20.4697Z" fill="white"/>
<path d="M0.46967 40.4697C0.176777 40.7626 0.176777 41.2374 0.46967 41.5303C0.762563 41.8232 1.23744 41.8232 1.53033 41.5303L0.46967 40.4697ZM21 21L21.5303 21.5303L22.0607 21L21.5303 20.4697L21 21ZM1.53033 0.469669C1.23744 0.176777 0.762563 0.176777 0.46967 0.469669C0.176777 0.762562 0.176777 1.23744 0.46967 1.53033L1.53033 0.469669ZM1.53033 41.5303L21.5303 21.5303L20.4697 20.4697L0.46967 40.4697L1.53033 41.5303ZM21.5303 20.4697L1.53033 0.469669L0.46967 1.53033L20.4697 21.5303L21.5303 20.4697Z" fill="white"/>
</svg>
