<svg width="116" height="66" viewBox="0 0 116 66" fill="none" xmlns="http://www.w3.org/2000/svg">
<path d="M41.5858 61.5858L40.1716 63L43 65.8284L44.4142 64.4142L41.5858 61.5858ZM73 33L74.4142 34.4142L75.8284 33L74.4142 31.5858L73 33ZM44.4142 1.58578L43 0.171574L40.1716 3L41.5858 4.41422L44.4142 1.58578ZM44.4142 64.4142L74.4142 34.4142L71.5858 31.5858L41.5858 61.5858L44.4142 64.4142ZM74.4142 31.5858L44.4142 1.58578L41.5858 4.41422L71.5858 34.4142L74.4142 31.5858Z" fill="white"/>
<path d="M81.5858 61.5858L80.1716 63L83 65.8284L84.4142 64.4142L81.5858 61.5858ZM113 33L114.414 34.4142L115.828 33L114.414 31.5858L113 33ZM84.4142 1.58578L83 0.171574L80.1716 3L81.5858 4.41422L84.4142 1.58578ZM84.4142 64.4142L114.414 34.4142L111.586 31.5858L81.5858 61.5858L84.4142 64.4142ZM114.414 31.5858L84.4142 1.58578L81.5858 4.41422L111.586 34.4142L114.414 31.5858Z" fill="white"/>
<path d="M1.58579 61.5858L0.171573 63L3 65.8284L4.41421 64.4142L1.58579 61.5858ZM33 33L34.4142 34.4142L35.8284 33L34.4142 31.5858L33 33ZM4.41421 1.58578L3 0.171574L0.171573 3L1.58579 4.41422L4.41421 1.58578ZM4.41421 64.4142L34.4142 34.4142L31.5858 31.5858L1.58579 61.5858L4.41421 64.4142ZM34.4142 31.5858L4.41421 1.58578L1.58579 4.41422L31.5858 34.4142L34.4142 31.5858Z" fill="white"/>
</svg>
