<svg width="33" height="32" viewBox="0 0 33 32" fill="none" xmlns="http://www.w3.org/2000/svg">
<path d="M14.2937 9.0354H7.03516C6.75906 9.0354 6.53516 9.2593 6.53516 9.5354C6.53516 9.8115 6.75906 10.0354 7.03516 10.0354H14.2937C14.5698 10.0354 14.7937 9.8115 14.7937 9.5354C14.7937 9.2593 14.5698 9.0354 14.2937 9.0354Z" fill="white" fill-opacity="0.6"/>
<path d="M14.2937 11.626H7.03516C6.75906 11.626 6.53516 11.8499 6.53516 12.126C6.53516 12.4021 6.75906 12.626 7.03516 12.626H14.2937C14.5698 12.626 14.7937 12.4021 14.7937 12.126C14.7937 11.8499 14.5698 11.626 14.2937 11.626Z" fill="white" fill-opacity="0.6"/>
<path d="M30.9387 17.7036L31.9624 15.2131C32.0634 14.9675 31.9548 14.6858 31.7153 14.5715L29.8235 13.6694L29.1865 11.053C29.1235 10.795 28.8699 10.6309 28.6096 10.6795L26.5502 11.0608L26.309 10.8561V1.60791C26.309 1.33181 26.0851 1.10791 25.809 1.10791H4.2617C3.9856 1.10791 3.7617 1.33181 3.7617 1.60791V18.5949C2.202 18.8256 1 20.1694 1 21.792C1 22.9698 1.6345 23.9996 2.57765 24.5657V28.9295C2.5769 29.4388 2.5762 30.0725 3.0088 30.5056C3.2649 30.762 3.62305 30.8921 4.0735 30.8921H6.16605C6.5231 30.8921 6.84695 30.7611 7.1044 30.5515H25.8091C26.0852 30.5515 26.3091 30.3276 26.3091 30.0515V23.9557L28.6631 24.1336C28.9282 24.1582 29.1619 23.9637 29.1963 23.7002L29.47 21.6223L31.7625 20.2088C31.9886 20.0694 32.0662 19.7779 31.9393 19.5445L30.9387 17.7036ZM9.81615 2.10791H12.009V5.50271L11.2705 4.74611C11.082 4.55326 10.7431 4.55326 10.5547 4.74611L9.81615 5.50271V2.10791ZM4.2361 19.5562H5.61645V24.0281H4.2361C3.00315 24.0281 2 23.0249 2 21.792C2 20.5591 3.00315 19.5562 4.2361 19.5562ZM8.35865 18.2202C8.7529 17.785 9.11325 17.3946 9.57425 17.1853V26.4005C9.11325 26.1911 8.7529 25.8005 8.35865 25.365C7.8899 24.8471 7.36575 24.2783 6.61645 24.0944V19.49C7.36575 19.3062 7.8899 18.7378 8.35865 18.2202ZM13.1116 20.7932H13.3542C13.9051 20.7932 14.3531 21.2412 14.3531 21.792C14.3531 22.3428 13.9051 22.791 13.3542 22.791H13.1116V20.7932ZM12.1116 24.7642C12.1116 25.9476 11.656 26.4757 10.5742 26.5477V17.0383C11.656 17.1102 12.1116 17.6381 12.1116 18.8215V24.7642ZM4.0735 29.8921C3.9529 29.8921 3.79325 29.876 3.7163 29.7989C3.57665 29.6592 3.57715 29.2552 3.57765 28.9307V24.9604C3.79035 25.0046 4.0105 25.0281 4.2361 25.0281H5.61645V28.4004C5.61645 28.6765 5.8899 28.9004 6.166 28.9004C6.43945 28.9004 6.66185 29.1228 6.66185 29.3963C6.66185 29.6697 6.43945 29.8921 6.166 29.8921H4.0735ZM7.64615 29.5515C7.6516 29.4998 7.66185 29.4494 7.66185 29.3963C7.66185 28.7376 7.23385 28.177 6.61645 27.9781V25.1486C6.94 25.3067 7.23575 25.6144 7.61745 26.0362C8.2327 26.7161 8.9988 27.5623 10.3138 27.5623C12.1441 27.5623 13.1116 26.5947 13.1116 24.7642V23.791H13.3543C14.4563 23.791 15.3531 22.8943 15.3531 21.792C15.3531 20.69 14.4563 19.7932 13.3543 19.7932H13.1116V18.8215C13.1116 16.9912 12.1441 16.0237 10.3138 16.0237C8.9988 16.0237 8.23295 16.8694 7.61745 17.5488C7.0518 18.1733 6.6768 18.5561 6.11645 18.5561H4.7617V2.10791H8.81615V6.73096C8.81615 6.93431 8.9392 7.11741 9.12765 7.19411C9.3154 7.27051 9.53195 7.22611 9.67405 7.08011L10.9126 5.81106L12.1511 7.08011C12.2471 7.17851 12.377 7.23101 12.5091 7.23101C12.5726 7.23101 12.6365 7.21906 12.6975 7.19416C12.8861 7.11751 13.0091 6.93441 13.0091 6.73101V2.10791H25.3091V10.0076L24.4968 9.31836C24.2939 9.14646 23.993 9.16261 23.8106 9.35571L22.3692 10.8755L19.6833 10.6726C19.4236 10.6548 19.1848 10.8428 19.1502 11.106L18.8764 13.1824L16.5854 14.5977C16.3596 14.7371 16.2823 15.0283 16.4087 15.2615L17.4077 17.1025L16.3855 19.5932C16.2849 19.8388 16.3933 20.1201 16.6328 20.2343L18.5232 21.1364L19.1599 23.7531C19.2229 24.0109 19.4753 24.1743 19.737 24.1267L21.7964 23.7439L23.8496 25.4875C23.9436 25.5671 24.0586 25.6064 24.1731 25.6064C24.3059 25.6064 24.438 25.5539 24.5361 25.4504L25.3091 24.6355V29.5515H7.64615ZM29.9468 17.9722L30.8347 19.606L28.743 20.896C28.615 20.9749 28.5294 21.1072 28.5098 21.2564L28.2666 23.1009L25.816 22.9158C25.668 22.9053 25.5189 22.9615 25.4156 23.0704L24.1362 24.419L22.2624 22.828C22.1712 22.7506 22.0564 22.7091 21.9387 22.7091C21.9084 22.7091 21.8777 22.7118 21.8474 22.7174L20.0198 23.057L19.4387 20.6695C19.403 20.5235 19.3039 20.4012 19.1682 20.3365L17.4902 19.5357L18.423 17.2628C18.4799 17.1236 18.4717 16.9664 18.3999 16.8343L17.5129 15.2L19.604 13.9083C19.7319 13.8294 19.8173 13.6971 19.8368 13.5482L20.0798 11.7054L22.5307 11.8907C22.6816 11.9049 22.8278 11.8456 22.9311 11.7362L24.2106 10.3871L26.0844 11.9772C26.1989 12.0741 26.3516 12.1146 26.499 12.0875L28.3267 11.7489L28.9079 14.1369C28.9436 14.2831 29.0429 14.4054 29.1784 14.4701L30.8577 15.2707L29.9235 17.5434C29.8662 17.6824 29.8748 17.8401 29.9468 17.9722Z" fill="white" fill-opacity="0.6"/>
<path d="M26.7598 14.8166C26.5645 14.6213 26.2481 14.6213 26.0527 14.8166L21.5869 19.2824C21.3916 19.4777 21.3916 19.7941 21.5869 19.9895C21.6846 20.0871 21.8125 20.136 21.9404 20.136C22.0683 20.136 22.1963 20.0871 22.2939 19.9895L26.7597 15.5237C26.9551 15.3283 26.9551 15.0119 26.7598 14.8166Z" fill="white" fill-opacity="0.6"/>
<path d="M22.5168 26.3894H14.853C14.5769 26.3894 14.353 26.6133 14.353 26.8894C14.353 27.1655 14.5769 27.3894 14.853 27.3894H22.5168C22.7929 27.3894 23.0168 27.1655 23.0168 26.8894C23.0168 26.6133 22.7929 26.3894 22.5168 26.3894Z" fill="white" fill-opacity="0.6"/>
<path d="M25.8091 18.0017C25.0144 18.0017 24.3679 18.6489 24.3679 19.4444C24.3679 20.2391 25.0144 20.8855 25.8091 20.8855C26.6045 20.8855 27.2517 20.239 27.2517 19.4444C27.2517 18.649 26.6045 18.0017 25.8091 18.0017ZM25.8091 19.8855C25.5659 19.8855 25.3679 19.6875 25.3679 19.4444C25.3679 19.2002 25.5659 19.0017 25.8091 19.0017C26.0532 19.0017 26.2517 19.2002 26.2517 19.4444C26.2517 19.6875 26.0532 19.8855 25.8091 19.8855Z" fill="white" fill-opacity="0.6"/>
<path d="M22.5373 16.8031C23.333 16.8031 23.9802 16.1566 23.9802 15.3619C23.9802 14.5663 23.333 13.9191 22.5373 13.9191C21.7429 13.9191 21.0964 14.5663 21.0964 15.3619C21.0964 16.1566 21.7429 16.8031 22.5373 16.8031ZM22.5373 14.919C22.7815 14.919 22.9802 15.1178 22.9802 15.3619C22.9802 15.605 22.7814 15.803 22.5373 15.803C22.2942 15.803 22.0964 15.605 22.0964 15.3619C22.0964 15.1178 22.2942 14.919 22.5373 14.919Z" fill="white" fill-opacity="0.6"/>
</svg>
