<svg width="33" height="32" viewBox="0 0 33 32" fill="none" xmlns="http://www.w3.org/2000/svg">
<g clip-path="url(#clip0_862_2210)">
<path d="M16.8774 23.7583C16.6013 23.7583 16.3774 23.5346 16.3774 23.2583V20.2983C16.3774 20.022 16.6013 19.7983 16.8774 19.7983C17.1535 19.7983 17.3774 20.022 17.3774 20.2983V23.2583C17.3774 23.5346 17.1535 23.7583 16.8774 23.7583Z" fill="white" fill-opacity="0.6"/>
<path d="M7.19461 23.7583C6.91851 23.7583 6.69461 23.5346 6.69461 23.2583V20.2983C6.69461 20.022 6.91851 19.7983 7.19461 19.7983C7.47071 19.7983 7.69461 20.022 7.69461 20.2983V23.2583C7.69461 23.5346 7.47071 23.7583 7.19461 23.7583Z" fill="white" fill-opacity="0.6"/>
<path d="M22.8218 16.4399H28.8806C29.2959 16.4399 29.6338 16.101 29.6338 15.685V13.7841C29.6338 13.3681 29.2959 13.0292 28.8806 13.0292H22.8218C22.4062 13.0292 22.0684 13.368 22.0684 13.7841V15.685C22.0683 16.101 22.4062 16.4399 22.8218 16.4399ZM23.0683 14.0292H28.6338V15.4399H23.0683V14.0292Z" fill="white" fill-opacity="0.6"/>
<path d="M22.5684 18.7397H29.1338C29.4099 18.7397 29.6338 18.5161 29.6338 18.2397C29.6338 17.9634 29.4099 17.7397 29.1338 17.7397H22.5684C22.2923 17.7397 22.0684 17.9634 22.0684 18.2397C22.0684 18.5161 22.2923 18.7397 22.5684 18.7397Z" fill="white" fill-opacity="0.6"/>
<path d="M22.5684 21.1543H29.1338C29.4099 21.1543 29.6338 20.9306 29.6338 20.6543C29.6338 20.3779 29.4099 20.1543 29.1338 20.1543H22.5684C22.2923 20.1543 22.0684 20.3779 22.0684 20.6543C22.0684 20.9306 22.2923 21.1543 22.5684 21.1543Z" fill="white" fill-opacity="0.6"/>
<path d="M30.1123 6.40739C30.1465 6.18869 30.1695 5.96634 30.1695 5.73819C30.1695 3.34999 28.2266 1.40714 25.8384 1.40714H21.9422C19.554 1.40714 17.6111 3.34999 17.6111 5.73819C17.6111 5.96029 17.6312 6.17784 17.664 6.39149H16.4537V5.74499V5.32604C16.4537 3.27524 15.6082 2.17954 14.8992 1.62144C13.8699 0.811892 12.3819 0.538942 10.918 0.894392C8.8223 1.40319 7.6204 3.01839 7.6204 5.32604V5.74499V6.39149H3.5432C2.2788 6.39154 1.25 7.42034 1.25 8.68499V24.4765C1.25 25.7411 2.2788 26.7699 3.5432 26.7699H11.8567L10.2851 30.2563H9.301C9.0249 30.2563 8.801 30.4799 8.801 30.7563C8.801 31.0326 9.0249 31.2563 9.301 31.2563H24.1989C24.475 31.2563 24.6989 31.0326 24.6989 30.7563C24.6989 30.4799 24.475 30.2563 24.1989 30.2563H23.2148L21.6418 26.7699H29.955C31.2204 26.7699 32.25 25.7411 32.25 24.4765V8.68499C32.25 7.47414 31.3033 6.48984 30.1123 6.40739ZM21.9422 2.40719H25.8384C27.675 2.40719 29.1695 3.90134 29.1695 5.73824C29.1695 7.57514 27.675 9.06979 25.8384 9.06979H24.1938C24.0537 9.06979 23.9202 9.12839 23.8255 9.23189L22.4756 10.7026C22.2019 10.9179 22.0103 10.9404 21.9524 10.9047C21.9041 10.8735 21.8577 10.7455 21.9004 10.5776L22.1656 9.70649C22.21 9.56049 22.1853 9.40229 22.0986 9.27679C22.0119 9.15129 21.8726 9.07219 21.7202 9.06194C19.9768 8.94624 18.6111 7.48624 18.6111 5.73819C18.6111 3.90129 20.1055 2.40719 21.9422 2.40719ZM17.9447 7.39154C18.4834 8.68584 19.6305 9.67389 21.0391 9.97454L20.938 10.307C20.7852 10.8993 20.9718 11.4643 21.4137 11.747C21.5936 11.8617 21.7962 11.9184 22.011 11.9184C22.3694 11.9184 22.761 11.7611 23.135 11.4555C23.1533 11.4403 23.1707 11.4237 23.1868 11.4062L24.4136 10.0697H25.8384C27.6411 10.0697 29.1889 8.96169 29.84 7.39154H29.9551C30.6692 7.39154 31.25 7.97164 31.25 8.68499V22.7582H20.4077V18.9516C20.4077 15.6972 17.9841 12.9027 14.8108 12.3964V11.1399C15.8115 10.3296 16.4536 9.09284 16.4536 7.70794V7.39154H17.9447ZM10.2099 15.4553C10.2021 15.4623 10.1924 15.4671 10.185 15.4746L10.0159 15.6054L8.57285 13.5945C8.9081 13.4847 9.25655 13.4064 9.61605 13.3621L11.2307 14.6655L10.2099 15.4553ZM10.7776 17.7433L9.9291 22.7582H4.666V18.9516C4.666 16.8422 5.86755 14.9647 7.6333 14.0004L9.5056 16.6098C9.5847 16.7201 9.7053 16.7934 9.8396 16.8129C9.86375 16.8163 9.88795 16.8183 9.91185 16.8183C10.0219 16.8183 10.1296 16.7817 10.2177 16.7138L10.3274 16.6289L10.7776 17.7433ZM12.0368 14.0309L10.2629 12.5987V11.7496C10.8064 11.9891 11.4057 12.1245 12.0368 12.1245C12.6679 12.1245 13.2672 11.9891 13.8108 11.7496V12.5987L12.0368 14.0309ZM12.0369 15.306L12.9156 15.986L12.4316 17.1869H11.6313L11.1491 15.993L12.0369 15.306ZM11.7167 18.1869H12.3467L13.1187 22.7582H10.9432L11.7167 18.1869ZM12.843 14.6655L14.4577 13.3621C14.8172 13.4064 15.1656 13.4848 15.5008 13.5945L14.0581 15.6054L12.843 14.6655ZM13.7377 16.6221L13.8562 16.7138C13.9444 16.7821 14.052 16.8183 14.1621 16.8183C14.186 16.8183 14.2102 16.8163 14.2344 16.8129C14.3687 16.7934 14.4892 16.7202 14.5683 16.6098L16.4404 14.0004C18.2061 14.9647 19.4077 16.8422 19.4077 18.9515V22.7582H14.1328L13.2858 17.7432L13.7377 16.6221ZM11.1536 1.86614C12.3218 1.58439 13.491 1.78559 14.2808 2.40714C15.043 3.00724 15.4373 3.96134 15.4531 5.24504H13.813C11.4595 5.24504 11.217 4.78509 10.7663 3.93059C10.6699 3.74799 10.4694 3.64299 10.2661 3.66739C10.0608 3.69134 9.8916 3.83929 9.84005 4.03944C9.53485 5.22354 9.5068 5.25769 8.6208 5.25089C8.64525 3.45794 9.5427 2.25724 11.1536 1.86614ZM8.62035 6.25009C8.64675 6.25034 8.6742 6.25089 8.69995 6.25089C9.5974 6.25089 10.0896 6.12004 10.4699 5.29974C11.0144 5.90129 11.8677 6.24504 13.813 6.24504H15.4536V7.70794C15.4536 9.59174 13.9209 11.1244 12.0368 11.1244C10.153 11.1244 8.62035 9.59174 8.62035 7.70794V6.25009V6.25009ZM3.5432 7.39154H7.62035V7.70794C7.62035 9.09279 8.26225 10.3294 9.26295 11.1398V12.3959C6.0896 12.9028 3.666 15.6972 3.666 18.9516V22.7582H2.25V8.68499C2.25 7.97164 2.8301 7.39154 3.5432 7.39154ZM22.1177 30.2563H11.382L12.9537 26.7699H20.5447L22.1177 30.2563ZM29.9551 25.7699H20.8561C20.8556 25.7699 20.8552 25.7699 20.8546 25.7699H3.5432C2.8301 25.7699 2.25 25.1899 2.25 24.4765V23.7582H31.25V24.4765C31.25 25.1899 30.6692 25.7699 29.9551 25.7699Z" fill="white" fill-opacity="0.6"/>
<path d="M16.5479 24.2836L16.5237 24.2958C16.2771 24.4203 16.1905 24.7147 16.3147 24.9613C16.4021 25.1342 16.5816 25.2313 16.7661 25.2313C16.845 25.2313 16.9248 25.2133 16.9985 25.1761C17.2451 25.0516 17.344 24.7508 17.2195 24.5042C17.0952 24.2582 16.7945 24.1581 16.5479 24.2836Z" fill="white" fill-opacity="0.6"/>
<path d="M21.3022 5.29724H26.4783C26.7544 5.29724 26.9783 5.07359 26.9783 4.79724C26.9783 4.52089 26.7544 4.29724 26.4783 4.29724H21.3022C21.0261 4.29724 20.8022 4.52089 20.8022 4.79724C20.8022 5.07359 21.0261 5.29724 21.3022 5.29724Z" fill="white" fill-opacity="0.6"/>
<path d="M21.3022 7.34033H22.6797C22.9558 7.34033 23.1797 7.11668 23.1797 6.84033C23.1797 6.56398 22.9558 6.34033 22.6797 6.34033H21.3022C21.0261 6.34033 20.8022 6.56398 20.8022 6.84033C20.8022 7.11668 21.0261 7.34033 21.3022 7.34033Z" fill="white" fill-opacity="0.6"/>
<path d="M26.4783 6.34033H25.1008C24.8247 6.34033 24.6008 6.56398 24.6008 6.84033C24.6008 7.11668 24.8247 7.34033 25.1008 7.34033H26.4783C26.7544 7.34033 26.9783 7.11668 26.9783 6.84033C26.9783 6.56398 26.7544 6.34033 26.4783 6.34033Z" fill="white" fill-opacity="0.6"/>
</g>
<defs>
<clipPath id="clip0_862_2210">
<rect width="32" height="32" fill="white" transform="translate(0.75)"/>
</clipPath>
</defs>
</svg>
