<svg width="13" height="20" viewBox="0 0 13 20" fill="none" xmlns="http://www.w3.org/2000/svg">
<g clip-path="url(#clip0_713_847)">
<path d="M6.40607 0C3.55935 0 1.24357 2.31542 1.24357 5.16188C1.24357 8.00812 3.55935 10.3225 6.40607 10.3225C9.2527 10.3225 11.5673 8.00812 11.5673 5.16188C11.5673 2.31542 9.25272 0 6.40607 0ZM6.40607 3.02438C7.58426 3.02438 8.54234 3.98372 8.54234 5.16188C8.54234 6.33954 7.58428 7.29814 6.40607 7.29814C5.22765 7.29814 4.26857 6.33956 4.26857 5.16188C4.26857 3.98372 5.22765 3.02438 6.40607 3.02438ZM2.14983 10.4981C1.63907 10.4902 1.13681 10.7419 0.845445 11.2062C0.400185 11.9136 0.613485 12.847 1.31921 13.2919C2.25269 13.8775 3.26563 14.293 4.31609 14.5325L1.43109 17.4187C0.840485 18.0096 0.840985 18.9666 1.43171 19.5575C1.72779 19.8524 2.11395 20 2.50109 20C2.88783 20 3.27529 19.8522 3.57047 19.5569L6.40485 16.7213L9.24174 19.5569C9.83184 20.1476 10.7887 20.1476 11.3799 19.5569C11.9707 18.9664 11.9707 18.0084 11.3799 17.4188L8.4936 14.5331C9.54436 14.2936 10.5576 13.8779 11.4905 13.2919C12.1976 12.847 12.4112 11.9126 11.9661 11.2063C11.5205 10.4988 10.5875 10.2856 9.87984 10.7313C7.7664 12.0606 5.04323 12.0598 2.93045 10.7313C2.68725 10.5781 2.41737 10.5023 2.14983 10.4981V10.4981Z" fill="white" fill-opacity="0.8"/>
</g>
<defs>
<clipPath id="clip0_713_847">
<rect width="11.5855" height="20" fill="white" transform="translate(0.612793)"/>
</clipPath>
</defs>
</svg>
