<svg width="20" height="20" viewBox="0 0 20 20" fill="none" xmlns="http://www.w3.org/2000/svg">
<g clip-path="url(#clip0_713_840)">
<path fill-rule="evenodd" clip-rule="evenodd" d="M19.5417 4.95663C19.68 4.50163 19.5417 4.16663 18.8792 4.16663H16.6917C16.135 4.16663 15.8783 4.45579 15.7392 4.77496C15.7392 4.77496 14.6267 7.43829 13.0508 9.16829C12.5408 9.66996 12.3092 9.82913 12.0308 9.82913C11.8917 9.82913 11.6825 9.66996 11.6825 9.21413V4.95663C11.6825 4.40996 11.5292 4.16663 11.0658 4.16663H7.62583C7.27833 4.16663 7.06917 4.41996 7.06917 4.66079C7.06917 5.17829 7.8575 5.29829 7.93833 6.75496V9.91996C7.93833 10.6141 7.81083 10.74 7.5325 10.74C6.79083 10.74 4.98667 8.06413 3.91583 5.00246C3.70833 4.40663 3.49833 4.16663 2.93917 4.16663H0.75C0.125 4.16663 0 4.45579 0 4.77496C0 5.34329 0.741667 8.16663 3.45417 11.9008C5.2625 14.4508 7.80833 15.8333 10.1275 15.8333C11.5183 15.8333 11.69 15.5266 11.69 14.9975V13.07C11.69 12.4558 11.8217 12.3333 12.2625 12.3333C12.5875 12.3333 13.1433 12.4933 14.4417 13.7225C15.925 15.18 16.1692 15.8333 17.0042 15.8333H19.1917C19.8167 15.8333 20.13 15.5266 19.95 14.92C19.7517 14.3166 19.0433 13.4408 18.1042 12.4016C17.5942 11.81 16.8292 11.1725 16.5967 10.8533C16.2725 10.4441 16.365 10.2616 16.5967 9.89746C16.5967 9.89746 19.2633 6.20913 19.5408 4.95663H19.5417Z" fill="white" fill-opacity="0.8"/>
</g>
<defs>
<clipPath id="clip0_713_840">
<rect width="20" height="20" fill="white"/>
</clipPath>
</defs>
</svg>
