<svg width="20" height="20" viewBox="0 0 20 20" fill="none" xmlns="http://www.w3.org/2000/svg">
<path d="M15.7143 18.5713H13.5714C13.3965 18.5713 13.2276 18.5071 13.0969 18.3908C12.9661 18.2746 12.8826 18.1144 12.8621 17.9406L12.8571 17.857V12.1428C12.8572 11.9678 12.9214 11.7989 13.0376 11.6682C13.1539 11.5375 13.3141 11.4539 13.4878 11.4335L13.5714 11.4285H17.5V9.9999C17.5 5.85775 14.1421 2.4999 9.99999 2.4999C5.85784 2.4999 2.49999 5.85775 2.49999 9.9999V11.4285H6.42856C6.618 11.4285 6.79968 11.5037 6.93363 11.6377C7.06759 11.7716 7.14284 11.9533 7.14284 12.1428V17.857C7.14284 18.0465 7.06759 18.2282 6.93363 18.3621C6.79968 18.4961 6.618 18.5713 6.42856 18.5713H4.2857C3.52794 18.5713 2.80121 18.2703 2.2654 17.7345C1.72958 17.1987 1.42856 16.4719 1.42856 15.7142V9.9999C1.42856 5.26632 5.26642 1.42847 9.99999 1.42847C14.7336 1.42847 18.5714 5.26632 18.5714 9.9999V15.7142C18.5714 16.4472 18.2897 17.1522 17.7845 17.6833C17.2793 18.2145 16.5892 18.5311 15.8571 18.5678L15.7143 18.5713H13.5714H15.7143ZM6.07142 12.4999H2.49999V15.7142C2.49999 16.1878 2.68812 16.642 3.02301 16.9769C3.3579 17.3118 3.8121 17.4999 4.2857 17.4999H6.07142V12.4999ZM17.5 12.4999H13.9286V17.4999H15.7143C16.1879 17.4999 16.6421 17.3118 16.977 16.9769C17.3118 16.642 17.5 16.1878 17.5 15.7142V12.4999Z" fill="white"/>
</svg>
