<svg width="10" height="10" viewBox="0 0 10 10" fill="none" xmlns="http://www.w3.org/2000/svg">
<path d="M1.35355 4.14645C1.15829 3.95118 0.841709 3.95118 0.646447 4.14645C0.451184 4.34171 0.451184 4.65829 0.646447 4.85355L1.35355 4.14645ZM5 8.5L4.64645 8.85355L5 9.20711L5.35355 8.85355L5 8.5ZM9.35355 4.85355C9.54882 4.65829 9.54882 4.34171 9.35355 4.14645C9.15829 3.95118 8.84171 3.95118 8.64645 4.14645L9.35355 4.85355ZM0.646447 4.85355L4.64645 8.85355L5.35355 8.14645L1.35355 4.14645L0.646447 4.85355ZM5.35355 8.85355L9.35355 4.85355L8.64645 4.14645L4.64645 8.14645L5.35355 8.85355Z" fill="white"/>
</svg>
