<svg width="16" height="16" viewBox="0 0 16 16" fill="none" xmlns="http://www.w3.org/2000/svg">
<path d="M12.2222 4.33325C12.8116 4.33325 13.3768 4.56738 13.7936 4.98413C14.2103 5.40087 14.4444 5.9661 14.4444 6.55547V12.111C14.4444 12.7004 14.2103 13.2656 13.7936 13.6824C13.3768 14.0991 12.8116 14.3333 12.2222 14.3333H3.77776C3.18839 14.3333 2.62316 14.0991 2.20642 13.6824C1.78967 13.2656 1.55554 12.7004 1.55554 12.111V6.55547C1.55554 5.9661 1.78967 5.40087 2.20642 4.98413C2.62316 4.56738 3.18839 4.33325 3.77776 4.33325H12.2222ZM13.5555 7.85414L8.00354 10.4941C7.94685 10.5274 7.88348 10.5477 7.818 10.5536C7.75252 10.5594 7.68656 10.5506 7.62488 10.5279L7.55199 10.4941L2.44443 7.85592V12.111C2.44443 12.4647 2.58491 12.8038 2.83496 13.0538C3.085 13.3039 3.42414 13.4444 3.77776 13.4444H12.2222C12.5758 13.4444 12.915 13.3039 13.165 13.0538C13.4151 12.8038 13.5555 12.4647 13.5555 12.111V7.85414ZM12.2222 5.22214H3.77776C3.42414 5.22214 3.085 5.36262 2.83496 5.61266C2.58491 5.86271 2.44443 6.20185 2.44443 6.55547V6.82392L7.77776 9.59547L13.5555 6.82214V6.55547C13.5555 6.20185 13.4151 5.86271 13.165 5.61266C12.915 5.36262 12.5758 5.22214 12.2222 5.22214Z" fill="white"/>
</svg>
