<svg width="16" height="16" viewBox="0 0 16 16" fill="none" xmlns="http://www.w3.org/2000/svg">
<path d="M12.4487 13.7777H12.3731C3.63978 13.2755 2.39978 5.90661 2.22645 3.65772C2.21248 3.48287 2.23315 3.30698 2.28728 3.14013C2.34141 2.97328 2.42793 2.81875 2.54188 2.68539C2.65583 2.55203 2.79497 2.44247 2.95134 2.36299C3.10771 2.2835 3.27822 2.23564 3.45311 2.22217H5.902C6.08003 2.222 6.254 2.27528 6.40139 2.37513C6.54879 2.47497 6.6628 2.61678 6.72867 2.78217L7.40422 4.44439C7.46927 4.60597 7.48541 4.78309 7.45064 4.95376C7.41588 5.12444 7.33174 5.28113 7.20867 5.40439L6.262 6.35995C6.40988 7.20028 6.81231 7.97491 7.41484 8.57904C8.01738 9.18317 8.79095 9.58764 9.63089 9.73772L10.5953 8.78217C10.7204 8.66046 10.8786 8.57828 11.0501 8.54587C11.2216 8.51347 11.3989 8.53228 11.5598 8.59995L13.2353 9.27106C13.3982 9.33901 13.5372 9.45391 13.6346 9.60113C13.7319 9.74836 13.7833 9.92123 13.782 10.0977V12.4444C13.782 12.798 13.6415 13.1372 13.3915 13.3872C13.1414 13.6372 12.8023 13.7777 12.4487 13.7777ZM3.55978 3.11106C3.44191 3.11106 3.32886 3.15788 3.24551 3.24123C3.16216 3.32458 3.11534 3.43763 3.11534 3.5555V3.59106C3.31978 6.22217 4.63089 12.4444 12.422 12.8888C12.4804 12.8924 12.5389 12.8845 12.5942 12.8654C12.6495 12.8464 12.7005 12.8166 12.7443 12.7778C12.7881 12.739 12.8237 12.6919 12.8493 12.6392C12.8748 12.5866 12.8897 12.5295 12.8931 12.4711V10.0977L11.2176 9.42661L9.942 10.6933L9.72867 10.6666C5.862 10.1822 5.33756 6.3155 5.33756 6.2755L5.31089 6.06217L6.57311 4.78661L5.90645 3.11106H3.55978Z" fill="white"/>
</svg>
