<svg width="16" height="16" viewBox="0 0 16 16" fill="none" xmlns="http://www.w3.org/2000/svg">
<path d="M8 2.98657C7.49632 2.98657 7.00395 3.13593 6.58515 3.41576C6.16635 3.69559 5.83994 4.09333 5.64719 4.55867C5.45444 5.02401 5.404 5.53606 5.50227 6.03007C5.60053 6.52407 5.84308 6.97785 6.19924 7.334C6.55539 7.69016 7.00917 7.93271 7.50317 8.03097C7.99718 8.12924 8.50923 8.0788 8.97457 7.88605C9.43991 7.6933 9.83765 7.36689 10.1175 6.94809C10.3973 6.52929 10.5467 6.03692 10.5467 5.53324C10.5467 4.85782 10.2784 4.21007 9.80077 3.73247C9.32317 3.25488 8.67542 2.98657 8 2.98657ZM8 7.19102C7.67212 7.19102 7.35161 7.09379 7.07899 6.91163C6.80637 6.72947 6.59389 6.47056 6.46841 6.16764C6.34294 5.86472 6.31011 5.5314 6.37408 5.20982C6.43804 4.88825 6.59593 4.59286 6.82777 4.36101C7.05962 4.12917 7.35501 3.97128 7.67658 3.90731C7.99816 3.84335 8.33149 3.87618 8.63441 4.00165C8.93732 4.12713 9.19623 4.33961 9.37839 4.61223C9.56055 4.88485 9.65778 5.20536 9.65778 5.53324C9.6566 5.97214 9.48142 6.39266 9.17066 6.70259C8.85989 7.01253 8.4389 7.18657 8 7.18657V7.19102Z" fill="white"/>
<path d="M8 0.888916C6.61564 0.890072 5.28799 1.439 4.30703 2.4158C3.32606 3.39261 2.77149 4.71791 2.76444 6.10225C2.76444 8.1778 3.92889 9.91558 4.78222 11.1822L4.93778 11.4134C5.78679 12.6439 6.69759 13.8306 7.66667 14.9689L8.00444 15.3645L8.34222 14.9689C9.31118 13.8305 10.222 12.6438 11.0711 11.4134L11.2267 11.1778C12.0756 9.91114 13.24 8.1778 13.24 6.10225C13.233 4.71714 12.6778 3.39117 11.6958 2.41424C10.7139 1.43731 9.38513 0.888898 8 0.888916ZM10.4844 10.6667L10.3244 10.9022C9.56 12.0489 8.54667 13.3334 8 13.9689C7.47556 13.3334 6.44 12.0489 5.67556 10.9022L5.52 10.6667C4.73333 9.49336 3.65333 7.88892 3.65333 6.08447C3.65333 5.51366 3.76576 4.94844 3.9842 4.42107C4.20264 3.89371 4.52282 3.41454 4.92644 3.01091C5.33007 2.60729 5.80924 2.28712 6.3366 2.06868C6.86396 1.85023 7.42919 1.7378 8 1.7378C8.57081 1.7378 9.13604 1.85023 9.6634 2.06868C10.1908 2.28712 10.6699 2.60729 11.0736 3.01091C11.4772 3.41454 11.7974 3.89371 12.0158 4.42107C12.2342 4.94844 12.3467 5.51366 12.3467 6.08447C12.3467 7.90669 11.2711 9.51114 10.4844 10.6667Z" fill="white"/>
</svg>
