<svg width="410" height="66" viewBox="0 0 410 66" fill="none" xmlns="http://www.w3.org/2000/svg">
<path d="M21.3525 54.8727H28.9198V11.3242H17.9303C6.84436 11.3242 1.01219 17.0359 1.01219 25.4226C1.01219 32.1224 4.19338 36.0748 9.90504 40.1477L0 54.8727H8.19395L19.2076 38.3884L15.3998 35.8338C10.7485 32.7008 8.50725 30.2426 8.50725 24.9888C8.50725 20.3617 11.7607 17.2287 17.9544 17.2287H21.3284V54.8727H21.3525ZM120.885 52.7519V46.6546C117.941 48.5259 114.54 49.5514 111.052 49.6189C105.606 49.6189 103.533 47.0402 103.22 41.7864H121.222V37.8341C121.222 26.8686 116.402 22.7235 108.931 22.7235C99.8457 22.7235 95.5319 29.6883 95.5319 39.2078C95.5319 50.1732 100.906 55.4993 110.426 55.4993C115.197 55.4993 118.716 54.2461 120.909 52.7519H120.885ZM167.518 55.4993C170.964 55.4993 173.399 54.8727 175.23 53.5713V47.474C173.098 48.9541 170.546 49.7063 167.952 49.6189C162.626 49.6189 160.433 45.4737 160.433 38.9668C160.433 32.1224 163.132 28.6038 168.024 28.6038C170.916 28.6038 173.712 29.616 175.23 30.5559V24.2658C172.714 23.1293 169.963 22.6088 167.205 22.7476C157.685 22.7476 152.745 29.5919 152.745 39.1596C152.745 49.6912 157.565 55.5234 167.518 55.5234V55.4993ZM52.61 23.3501V35.8338H42.6568V23.3501H35.1858V54.8727H42.6568V41.7141H52.61V54.8727H60.081V23.3501H52.61ZM93.7003 48.9923H90.3986V23.3501H68.6364V26.0492C68.6364 33.7612 68.1544 43.7144 65.5034 48.9923H63.1898V62.0785H70.0824V54.8727H86.8077V62.0785H93.7003V48.9923ZM144.696 54.8727H153.155L141.201 37.8823L151.733 23.3501H144.214L133.682 37.8823V23.3501H126.211V54.8727H133.682V39.4006L144.696 54.8727ZM108.787 28.6038C112.498 28.6038 113.631 31.6886 113.631 35.641V36.2676H103.22C103.413 31.2548 105.244 28.6279 108.811 28.6279L108.787 28.6038ZM82.9276 48.9923H72.396C74.4686 44.2205 75.047 35.641 75.047 30.1944V29.2304H82.9276V48.9923Z" fill="white"/>
<path fill-rule="evenodd" clip-rule="evenodd" d="M202.102 65.1638C197.764 64.5854 194.101 63.3322 191.209 60.4161C188.317 57.5241 187.064 53.885 186.462 49.523C185.907 45.3537 185.907 40.0517 185.907 33.4484V32.9182C185.907 26.3389 185.907 21.0128 186.462 16.8435C187.064 12.5056 188.293 8.84239 191.209 5.95041C194.101 3.05842 197.764 1.80523 202.102 1.20273C206.272 0.648438 211.598 0.648438 218.177 0.648438H218.707C225.286 0.648438 230.612 0.648438 234.782 1.20273C239.12 1.80523 242.783 3.03432 245.675 5.95041C248.567 8.84239 249.844 12.5056 250.423 16.8435C250.977 21.0128 250.977 26.3389 250.977 32.9182V33.4484C250.977 40.0517 250.977 45.3537 250.423 49.5471C249.844 53.885 248.591 57.5241 245.675 60.4161C242.783 63.3081 239.12 64.5854 234.782 65.1638C230.612 65.7181 225.286 65.7181 218.707 65.7181H218.177C211.598 65.7181 206.272 65.7181 202.102 65.1638Z" fill="white"/>
<path d="M206.512 45.1132C191.04 29.6411 189.521 21.5195 190.028 17.4707C189.521 21.3749 189.521 26.4359 189.521 33.1838C189.521 46.8243 189.521 53.6446 193.739 57.8862C198.005 62.1036 204.825 62.1036 218.441 62.1036C225.165 62.1036 230.25 62.1036 234.179 61.6216C230.106 62.1036 221.984 60.5854 206.512 45.1132Z" fill="url(#paint0_linear_235_7548)"/>
<path d="M243.143 8.50525C238.877 4.26367 232.057 4.26367 218.441 4.26367C204.8 4.26367 198.004 4.26367 193.738 8.50525C191.617 10.6501 190.557 13.4457 190.027 17.4704C189.521 21.5192 190.991 29.6167 206.511 45.1129C222.031 60.6333 230.105 62.1274 234.178 61.5972C238.178 61.0911 240.998 60.0308 243.143 57.8859C247.36 53.6443 247.36 46.7999 247.36 33.1835C247.36 19.5671 247.36 12.7468 243.143 8.50525Z" fill="url(#paint1_linear_235_7548)"/>
<path d="M226.032 55.1147L225.96 54.3435C224.803 41.9803 224.225 35.7866 220.007 31.6173C215.814 27.3998 209.644 26.8214 197.281 25.6647L196.51 25.5924C195.545 25.5001 194.608 25.2148 193.756 24.7532C192.903 24.2916 192.152 23.6633 191.547 22.9056C190.942 22.1479 190.496 21.2762 190.235 20.3426C189.974 19.4089 189.903 18.4322 190.027 17.4707C189.834 18.3383 189.714 19.2782 189.834 20.1699C190.051 22.1943 190.63 24.2187 191.329 25.7852C193.305 30.1954 197.426 37.2567 205.885 45.7398C214.368 54.1989 221.429 58.32 225.815 60.2962C227.382 60.9951 229.43 61.5735 231.455 61.7904C232.347 61.9109 233.262 61.7904 234.154 61.5976C233.191 61.7215 232.212 61.65 231.277 61.3873C230.342 61.1247 229.469 60.6764 228.711 60.069C227.953 59.4617 227.325 58.7079 226.865 57.8525C226.405 56.9971 226.122 56.0578 226.032 55.0906V55.1147Z" fill="url(#paint2_linear_235_7548)"/>
<path d="M260.353 47.9801V54.8727C260.353 54.8727 261.414 55.4993 263.486 55.4993C270.861 55.4993 272.933 49.4261 273.319 33.5202L273.753 17.2287H284.405V54.8727H291.972V11.3242H266.908L266.354 33.6407C266.113 44.2205 265.559 48.5344 262.498 48.5344C260.98 48.5344 260.329 47.9801 260.329 47.9801H260.353ZM321.808 33.3756C321.808 25.7359 317.952 22.8681 310.047 22.8681C305.107 22.8681 301.227 24.4345 298.961 25.76V31.9537C302.01 29.9791 305.548 28.8941 309.18 28.8207C312.746 28.8207 314.361 30.0739 314.361 33.4479V35.2072H313.18C301.781 35.2072 296.696 38.9668 296.696 45.3291C296.696 51.7397 300.576 55.3065 306.336 55.3065C310.746 55.3065 312.602 53.8605 314.048 52.3663H314.361C314.433 53.1857 314.674 54.2461 314.939 54.8727H322.193C321.948 52.3094 321.827 49.7357 321.832 47.1607V33.3756H321.808ZM314.361 47.3535C313.421 48.7272 311.686 49.8599 309.059 49.8599C305.926 49.8599 304.36 47.9801 304.36 45.1604C304.36 41.4731 306.914 40.1477 313.301 40.1477H314.361V47.3535ZM340.22 54.8727C347.619 54.8727 352.005 51.7397 352.005 45.7147C352.005 41.5936 349.499 39.2078 345.305 38.4607C348.679 37.4967 350.824 35.1349 350.824 31.3753C350.824 26.001 347.233 23.35 340.365 23.35H327.833V54.8727H340.22ZM339.28 28.9894C341.979 28.9894 343.498 30.1221 343.498 32.508C343.498 34.677 341.859 36.0025 339.039 36.0025H335.28V29.0135H339.28V28.9894ZM339.425 41.4731C342.606 41.4731 344.293 42.5817 344.293 45.2327C344.293 48.1247 342.413 49.2333 339.401 49.2333H335.28V41.4731H339.425ZM375.478 54.8727H383.937L371.984 37.8823L382.515 23.35H374.996L364.465 37.8823V23.35H356.994V54.8727H364.465V39.4006L375.478 54.8727ZM409.314 33.3756C409.314 25.7359 405.459 22.8681 397.554 22.8681C392.589 22.8681 388.709 24.4345 386.468 25.76V31.9537C389.509 29.9834 393.039 28.8986 396.662 28.8207C400.229 28.8207 401.868 30.0739 401.868 33.4479V35.2072H400.663C389.263 35.2072 384.202 38.9668 384.202 45.3291C384.202 51.7397 388.058 55.3065 393.842 55.3065C398.229 55.3065 400.108 53.8605 401.554 52.3663H401.868C401.916 53.1857 402.181 54.2461 402.422 54.8727H409.7C409.446 52.3098 409.318 49.7361 409.314 47.1607V33.3756ZM401.844 47.3535C400.928 48.7272 399.193 49.8599 396.542 49.8599C393.409 49.8599 391.842 47.9801 391.842 45.1604C391.842 41.4731 394.397 40.1477 400.807 40.1477H401.868V47.3535H401.844Z" fill="white"/>
<defs>
<linearGradient id="paint0_linear_235_7548" x1="189.521" y1="62.1085" x2="234.171" y2="17.4659" gradientUnits="userSpaceOnUse">
<stop stop-color="#00E6E6"/>
<stop offset="0.495" stop-color="#0059B3"/>
</linearGradient>
<linearGradient id="paint1_linear_235_7548" x1="189.942" y1="61.6864" x2="253.224" y2="11.6888" gradientUnits="userSpaceOnUse">
<stop stop-color="#00BFFF"/>
<stop offset="1" stop-color="#80FFEA"/>
</linearGradient>
<linearGradient id="paint2_linear_235_7548" x1="206.938" y1="45.4145" x2="218.998" y2="34.5551" gradientUnits="userSpaceOnUse">
<stop stop-color="#E6FBFF"/>
<stop offset="1" stop-color="white"/>
</linearGradient>
</defs>
</svg>
