<svg width="20" height="20" viewBox="0 0 20 20" fill="none" xmlns="http://www.w3.org/2000/svg">
<path d="M15.5608 17.2223H15.4664C4.54973 16.5945 2.99973 7.38339 2.78306 4.57228C2.7656 4.35371 2.79145 4.13385 2.8591 3.92528C2.92676 3.71672 3.03491 3.52356 3.17735 3.35686C3.31979 3.19017 3.49372 3.05321 3.68918 2.95385C3.88464 2.85449 4.09778 2.79468 4.3164 2.77783H7.37751C7.60004 2.77762 7.81751 2.84423 8.00175 2.96903C8.18599 3.09384 8.3285 3.27109 8.41084 3.47783L9.25528 5.55561C9.33659 5.75758 9.35677 5.97899 9.31331 6.19233C9.26985 6.40567 9.16467 6.60154 9.01084 6.75561L7.82751 7.95006C8.01235 9.00047 8.51539 9.96876 9.26856 10.7239C10.0217 11.4791 10.9887 11.9847 12.0386 12.1723L13.2442 10.9778C13.4006 10.8257 13.5983 10.723 13.8127 10.6825C14.027 10.642 14.2486 10.6655 14.4497 10.7501L16.5442 11.5889C16.7478 11.6739 16.9215 11.8175 17.0432 12.0015C17.1649 12.1856 17.2291 12.4017 17.2275 12.6223V15.5556C17.2275 15.9976 17.0519 16.4216 16.7394 16.7341C16.4268 17.0467 16.0029 17.2223 15.5608 17.2223ZM4.44973 3.88894C4.30239 3.88894 4.16108 3.94748 4.05689 4.05166C3.95271 4.15585 3.89417 4.29716 3.89417 4.4445V4.48894C4.14973 7.77783 5.78862 15.5556 15.5275 16.1112C15.6005 16.1157 15.6737 16.1057 15.7428 16.0819C15.8119 16.0581 15.8757 16.0208 15.9304 15.9723C15.9851 15.9238 16.0297 15.865 16.0616 15.7992C16.0935 15.7334 16.1121 15.6619 16.1164 15.5889V12.6223L14.022 11.7834L12.4275 13.3667L12.1608 13.3334C7.32751 12.7278 6.67195 7.8945 6.67195 7.8445L6.63862 7.57783L8.2164 5.98339L7.38306 3.88894H4.44973Z" fill="#57B690"/>
</svg>
