<svg width="20" height="20" viewBox="0 0 20 20" fill="none" xmlns="http://www.w3.org/2000/svg">
<path d="M15.2778 5.4165C16.0145 5.4165 16.721 5.70916 17.242 6.2301C17.7629 6.75103 18.0556 7.45757 18.0556 8.19428V15.1387C18.0556 15.8754 17.7629 16.582 17.242 17.1029C16.721 17.6238 16.0145 17.9165 15.2778 17.9165H4.72222C3.98551 17.9165 3.27897 17.6238 2.75804 17.1029C2.2371 16.582 1.94444 15.8754 1.94444 15.1387V8.19428C1.94444 7.45757 2.2371 6.75103 2.75804 6.2301C3.27897 5.70916 3.98551 5.4165 4.72222 5.4165H15.2778ZM16.9444 9.81762L10.0044 13.1176C9.93358 13.1592 9.85437 13.1846 9.77252 13.1919C9.69067 13.1992 9.60822 13.1882 9.53111 13.1598L9.44 13.1176L3.05555 9.81984V15.1387C3.05555 15.5808 3.23115 16.0047 3.54371 16.3172C3.85627 16.6298 4.28019 16.8054 4.72222 16.8054H15.2778C15.7198 16.8054 16.1437 16.6298 16.4563 16.3172C16.7688 16.0047 16.9444 15.5808 16.9444 15.1387V9.81762ZM15.2778 6.52762H4.72222C4.28019 6.52762 3.85627 6.70321 3.54371 7.01577C3.23115 7.32833 3.05555 7.75225 3.05555 8.19428V8.52984L9.72222 11.9943L16.9444 8.52762V8.19428C16.9444 7.75225 16.7688 7.32833 16.4563 7.01577C16.1437 6.70321 15.7198 6.52762 15.2778 6.52762Z" fill="#57B690"/>
</svg>
