<svg width="160" height="160" viewBox="0 0 160 160" fill="none" xmlns="http://www.w3.org/2000/svg">
<circle cx="80" cy="80" r="80" fill="white" fill-opacity="0.4"/>
<circle cx="80" cy="80" r="28" fill="white" fill-opacity="0.6"/>
<path d="M108 80C108 87.4261 105.05 94.548 99.799 99.799C94.548 105.05 87.4261 108 80 108C72.5739 108 65.452 105.05 60.201 99.799C54.95 94.548 52 87.4261 52 80C52 72.5739 54.95 65.452 60.201 60.201C65.452 54.95 72.5739 52 80 52C87.4261 52 94.548 54.95 99.799 60.201C105.05 65.452 108 72.5739 108 80V80ZM75.765 69.8255C75.5033 69.6392 75.1954 69.5285 74.875 69.5056C74.5546 69.4826 74.2341 69.5483 73.9485 69.6954C73.663 69.8425 73.4234 70.0654 73.2561 70.3396C73.0888 70.6138 73.0002 70.9288 73 71.25V88.75C73.0002 89.0712 73.0888 89.3862 73.2561 89.6604C73.4234 89.9346 73.663 90.1575 73.9485 90.3046C74.2341 90.4517 74.5546 90.5174 74.875 90.4944C75.1954 90.4715 75.5033 90.3608 75.765 90.1745L88.015 81.4245C88.2419 81.2626 88.4268 81.0489 88.5543 80.8011C88.6819 80.5533 88.7485 80.2787 88.7485 80C88.7485 79.7213 88.6819 79.4466 88.5543 79.1989C88.4268 78.9511 88.2419 78.7374 88.015 78.5755L75.765 69.8255V69.8255Z" fill="#262220"/>
</svg>
