<svg width="12" height="20" viewBox="0 0 12 20" fill="none" xmlns="http://www.w3.org/2000/svg">
<g clip-path="url(#clip0_713_851)">
<path d="M9.12207 10.8802H7.76283C5.62801 10.8802 3.55772 9.60028 3.55772 6.40012C3.55772 3.06626 5.49844 1.70654 7.47165 1.70654H9.12205V10.8802H9.12207ZM11.2569 0H7.56871C3.94616 0 0.872822 2.26668 0.872822 6.66684C0.872822 9.30688 2.3614 11.2534 5.01314 12.2134L0.0647219 19.5736C-0.0968982 19.8138 0.0647218 20 0.322742 20H2.6194C2.81352 20 2.94306 19.9468 3.00762 19.8138L7.50391 12.5866H9.12203V19.8138C9.12203 19.8935 9.21909 20 9.34755 20H11.3539C11.548 20 11.6128 19.9201 11.6128 19.7872V0.26688C11.6128 0.07976 11.4832 0 11.2569 0" fill="white" fill-opacity="0.8"/>
</g>
<defs>
<clipPath id="clip0_713_851">
<rect width="11.6128" height="20" fill="white"/>
</clipPath>
</defs>
</svg>
