<svg width="19" height="19" viewBox="0 0 19 19" fill="none" xmlns="http://www.w3.org/2000/svg">
<path d="M11.41 9.00002L18.7 1.71002C18.8638 1.51872 18.9494 1.27264 18.9397 1.02096C18.93 0.769288 18.8257 0.530549 18.6476 0.352454C18.4695 0.17436 18.2307 0.0700268 17.9791 0.0603056C17.7274 0.0505845 17.4813 0.136191 17.29 0.300017L10 7.59002L2.71 0.290017C2.5187 0.126191 2.27263 0.0405852 2.02095 0.0503063C1.76927 0.0600275 1.53054 0.164359 1.35244 0.342454C1.17435 0.520548 1.07001 0.759287 1.06029 1.01096C1.05057 1.26264 1.13618 1.50872 1.3 1.70002L8.59 9.00002L1.29 16.29C1.18532 16.3797 1.1003 16.49 1.04028 16.614C0.980256 16.7381 0.946525 16.8732 0.941205 17.011C0.935886 17.1487 0.959092 17.286 1.00937 17.4143C1.05964 17.5427 1.1359 17.6592 1.23335 17.7567C1.33081 17.8541 1.44736 17.9304 1.57568 17.9807C1.70401 18.0309 1.84134 18.0541 1.97906 18.0488C2.11678 18.0435 2.25191 18.0098 2.37597 17.9497C2.50004 17.8897 2.61036 17.8047 2.7 17.7L10 10.41L17.29 17.7C17.4813 17.8638 17.7274 17.9494 17.9791 17.9397C18.2307 17.93 18.4695 17.8257 18.6476 17.6476C18.8257 17.4695 18.93 17.2307 18.9397 16.9791C18.9494 16.7274 18.8638 16.4813 18.7 16.29L11.41 9.00002Z" fill="#BDBDBD"/>
</svg>
