<svg width="33" height="32" viewBox="0 0 33 32" fill="none" xmlns="http://www.w3.org/2000/svg">
<g clip-path="url(#clip0_862_2119)">
<path fill-rule="evenodd" clip-rule="evenodd" d="M20.75 13.5V11.5H30.25C30.8023 11.5 31.25 11.9477 31.25 12.5V22.9048C30.9623 22.6287 30.6238 22.405 30.25 22.2491V13.5C30.25 12.9477 29.8023 12.5 29.25 12.5H21.75C21.1977 12.5 20.75 12.9477 20.75 13.5ZM23.75 26L24 27H26.2609C26.0671 26.6972 25.922 26.3602 25.837 26H23.75Z" fill="white" fill-opacity="0.6"/>
<path fill-rule="evenodd" clip-rule="evenodd" d="M23.75 15C23.75 14.7239 23.9739 14.5 24.25 14.5H26.75C27.0261 14.5 27.25 14.7239 27.25 15C27.25 15.2761 27.0261 15.5 26.75 15.5H24.25C23.9739 15.5 23.75 15.2761 23.75 15Z" fill="white" fill-opacity="0.6"/>
<path fill-rule="evenodd" clip-rule="evenodd" d="M22.25 17.5C22.25 17.2239 22.4739 17 22.75 17H28.75C29.0261 17 29.25 17.2239 29.25 17.5C29.25 17.7761 29.0261 18 28.75 18H22.75C22.4739 18 22.25 17.7761 22.25 17.5Z" fill="white" fill-opacity="0.6"/>
<path fill-rule="evenodd" clip-rule="evenodd" d="M22.25 20C22.25 19.7239 22.4739 19.5 22.75 19.5H28.75C29.0261 19.5 29.25 19.7239 29.25 20C29.25 20.2761 29.0261 20.5 28.75 20.5H22.75C22.4739 20.5 22.25 20.2761 22.25 20Z" fill="white" fill-opacity="0.6"/>
<path fill-rule="evenodd" clip-rule="evenodd" d="M29 27.5C30.2426 27.5 31.25 26.4926 31.25 25.25C31.25 24.0074 30.2426 23 29 23C27.7574 23 26.75 24.0074 26.75 25.25C26.75 26.4926 27.7574 27.5 29 27.5ZM29 28.5C30.7949 28.5 32.25 27.0449 32.25 25.25C32.25 23.4551 30.7949 22 29 22C27.2051 22 25.75 23.4551 25.75 25.25C25.75 27.0449 27.2051 28.5 29 28.5Z" fill="white" fill-opacity="0.6"/>
<path fill-rule="evenodd" clip-rule="evenodd" d="M27.75 30.4129V27.5H26.75V31.5C26.75 31.6953 26.8637 31.8727 27.0411 31.9543C27.2185 32.0358 27.4271 32.0067 27.5754 31.8796L29 30.6585L30.4246 31.8796C30.5729 32.0067 30.7815 32.0358 30.9589 31.9543C31.1363 31.8727 31.25 31.6953 31.25 31.5V27.5H30.25V30.4129L29 29.3415L27.75 30.4129Z" fill="white" fill-opacity="0.6"/>
<path d="M22.4297 23.7602L21.5 23.4156V11.7872C21.4993 10.3726 21.1701 8.97755 20.5385 7.71182C19.9069 6.44609 18.9901 5.34427 17.8603 4.49312L18.8185 1.61906C18.8392 1.55697 18.8475 1.49141 18.8428 1.42613C18.8382 1.36084 18.8207 1.29712 18.7914 1.23859C18.7621 1.18006 18.7216 1.12788 18.6721 1.08503C18.6226 1.04218 18.5652 1.0095 18.5031 0.988868C14.52 -0.329297 10.2183 -0.329297 6.2352 0.988868C6.10986 1.0307 6.00625 1.12055 5.94711 1.23871C5.88797 1.35687 5.87813 1.49366 5.91977 1.61906L6.87801 4.49312C5.74817 5.34427 4.83135 6.44609 4.19975 7.71182C3.56815 8.97755 3.23902 10.3726 3.23828 11.7872V23.4156L2.30859 23.7602C1.70554 23.9856 1.18549 24.3894 0.817711 24.9178C0.449937 25.4462 0.251905 26.0742 0.25 26.718V31.502C0.25 31.6341 0.302473 31.7608 0.395875 31.8542C0.489277 31.9476 0.615957 32.0001 0.748047 32.0001H23.9902C24.1223 32.0001 24.249 31.9476 24.3424 31.8542C24.4358 31.7608 24.4883 31.6341 24.4883 31.502V26.718C24.4864 26.0742 24.2883 25.4462 23.9206 24.9178C23.5528 24.3894 23.0327 23.9856 22.4297 23.7602ZM17.7148 1.78309L15.9956 6.9402H8.74402L7.02477 1.78309C10.5103 0.733014 14.228 0.733014 17.7135 1.78309H17.7148ZM4.23438 11.7872C4.235 10.5838 4.50244 9.39549 5.01743 8.30785C5.53243 7.22021 6.28218 6.26029 7.2127 5.49719L7.91195 7.59562C7.94518 7.69476 8.00869 7.78096 8.09351 7.84208C8.17834 7.9032 8.28021 7.93615 8.38477 7.93629H16.3535C16.4581 7.93615 16.5599 7.9032 16.6448 7.84208C16.7296 7.78096 16.7931 7.69476 16.8263 7.59562L17.5256 5.49719C18.4561 6.26029 19.2059 7.22021 19.7208 8.30785C20.2358 9.39549 20.5033 10.5838 20.5039 11.7872V23.047L15.5234 21.2023V19.1975C16.1435 18.7173 16.6453 18.1016 16.9907 17.3975C17.336 16.6934 17.5155 15.9196 17.5156 15.1354V11.7168C17.5158 11.5855 17.464 11.4594 17.3716 11.3661C17.2792 11.2728 17.1536 11.2198 17.0222 11.2188C14.4204 11.1935 12.7423 9.57387 12.7198 9.55195C12.6264 9.45964 12.5004 9.40786 12.3691 9.40785H10.377C9.54071 9.40891 8.73901 9.74157 8.14769 10.3329C7.55638 10.9242 7.22371 11.7259 7.22266 12.5621V15.1354C7.22274 15.9196 7.40232 16.6934 7.74763 17.3975C8.09294 18.1016 8.59483 18.7173 9.21484 19.1975V21.2023L4.23438 23.047V11.7872ZM12.3691 22.3199L10.2109 21.2408V19.8057C10.8872 20.1194 11.6237 20.2819 12.3691 20.2819C13.1146 20.2819 13.8511 20.1194 14.5273 19.8057V21.2408L12.3691 22.3199ZM12.3691 19.2858C11.2688 19.2845 10.2138 18.8469 9.43573 18.0688C8.65765 17.2907 8.21998 16.2358 8.21875 15.1354V12.5621C8.21945 11.99 8.44706 11.4414 8.85165 11.0368C9.25624 10.6323 9.80478 10.4046 10.377 10.4039H12.1759C13.4015 11.4398 14.9201 12.0667 16.5195 12.1969V15.1387C16.5174 16.2385 16.0794 17.2926 15.3014 18.07C14.5234 18.8473 13.4689 19.2846 12.3691 19.2858ZM1.24609 26.718C1.24726 26.2774 1.38269 25.8477 1.63433 25.486C1.88598 25.1244 2.24187 24.8481 2.65457 24.6939L9.68367 22.0908L11.5284 23.0132L10.0084 24.5339C9.96205 24.58 9.92528 24.6348 9.90021 24.6953C9.87514 24.7557 9.86225 24.8204 9.8623 24.8858V31.004H1.24609V26.718ZM23.4922 31.004H10.8584V25.0923L12.664 23.2861L15.0546 22.0908L22.0837 24.6939C22.4964 24.8481 22.8523 25.1244 23.1039 25.486C23.3556 25.8477 23.491 26.2774 23.4922 26.718V31.004Z" fill="white" fill-opacity="0.6"/>
<path d="M11.041 4.46912H11.8711V5.2992C11.8711 5.43129 11.9236 5.55797 12.017 5.65137C12.1104 5.74477 12.2371 5.79724 12.3691 5.79724C12.5012 5.79724 12.6279 5.74477 12.7213 5.65137C12.8147 5.55797 12.8672 5.43129 12.8672 5.2992V4.46912H13.6973C13.8294 4.46912 13.956 4.41664 14.0494 4.32324C14.1428 4.22984 14.1953 4.10316 14.1953 3.97107C14.1953 3.83898 14.1428 3.7123 14.0494 3.6189C13.956 3.5255 13.8294 3.47302 13.6973 3.47302H12.8672V2.64294C12.8672 2.51085 12.8147 2.38417 12.7213 2.29077C12.6279 2.19737 12.5012 2.1449 12.3691 2.1449C12.2371 2.1449 12.1104 2.19737 12.017 2.29077C11.9236 2.38417 11.8711 2.51085 11.8711 2.64294V3.47302H11.041C10.9089 3.47302 10.7822 3.5255 10.6888 3.6189C10.5954 3.7123 10.543 3.83898 10.543 3.97107C10.543 4.10316 10.5954 4.22984 10.6888 4.32324C10.7822 4.41664 10.9089 4.46912 11.041 4.46912Z" fill="white" fill-opacity="0.6"/>
<path d="M20.2217 27.7207H16.9014C16.7693 27.7207 16.6426 27.7732 16.5492 27.8666C16.4558 27.96 16.4033 28.0867 16.4033 28.2188C16.4033 28.3508 16.4558 28.4775 16.5492 28.5709C16.6426 28.6643 16.7693 28.7168 16.9014 28.7168H20.2217C20.3538 28.7168 20.4805 28.6643 20.5739 28.5709C20.6673 28.4775 20.7197 28.3508 20.7197 28.2188C20.7197 28.0867 20.6673 27.96 20.5739 27.8666C20.4805 27.7732 20.3538 27.7207 20.2217 27.7207Z" fill="white" fill-opacity="0.6"/>
<path d="M12.4854 26.3301H12.1533C12.0212 26.3301 11.8946 26.3825 11.8011 26.476C11.7077 26.5694 11.6553 26.696 11.6553 26.8281C11.6553 26.9602 11.7077 27.0869 11.8011 27.1803C11.8946 27.2737 12.0212 27.3262 12.1533 27.3262H12.4854C12.6174 27.3262 12.7441 27.2737 12.8375 27.1803C12.9309 27.0869 12.9834 26.9602 12.9834 26.8281C12.9834 26.696 12.9309 26.5694 12.8375 26.476C12.7441 26.3825 12.6174 26.3301 12.4854 26.3301Z" fill="white" fill-opacity="0.6"/>
<path d="M12.4854 28.4863H12.1533C12.0212 28.4863 11.8946 28.5388 11.8011 28.6322C11.7077 28.7256 11.6553 28.8523 11.6553 28.9844C11.6553 29.1165 11.7077 29.2431 11.8011 29.3365C11.8946 29.43 12.0212 29.4824 12.1533 29.4824H12.4854C12.6174 29.4824 12.7441 29.43 12.8375 29.3365C12.9309 29.2431 12.9834 29.1165 12.9834 28.9844C12.9834 28.8523 12.9309 28.7256 12.8375 28.6322C12.7441 28.5388 12.6174 28.4863 12.4854 28.4863Z" fill="white" fill-opacity="0.6"/>
</g>
<defs>
<clipPath id="clip0_862_2119">
<rect width="32" height="32" fill="white" transform="translate(0.25)"/>
</clipPath>
</defs>
</svg>
