<svg width="32" height="32" viewBox="0 0 32 32" fill="none" xmlns="http://www.w3.org/2000/svg">
<path d="M23.7705 14.1631V3.40575C23.7705 2.90745 23.3643 2.50195 22.8652 2.50195H4.88575C4.3872 2.50195 3.98195 2.90745 3.98195 3.40575V14.1631C3.98195 14.6614 4.3872 15.0669 4.88575 15.0669H22.8652C23.3643 15.0669 23.7705 14.6614 23.7705 14.1631ZM22.7705 14.0669H4.98195V3.50195H22.7705V14.0669Z" fill="white" fill-opacity="0.6"/>
<path d="M9.49219 11.3044C10.9341 12.2383 12.3921 12.7053 13.8564 12.7053C15.3198 12.7053 16.79 12.239 18.2558 11.3066C18.4477 11.1846 18.5332 10.9482 18.4633 10.7317L16.687 5.21189C16.6035 4.95259 16.3296 4.80784 16.0678 4.88574C14.624 5.31664 13.1479 5.31614 11.6826 4.88524C11.4204 4.80784 11.1484 4.95384 11.0654 5.21164L9.28804 10.7314C9.21874 10.9465 9.30274 11.1814 9.49219 11.3044ZM11.872 5.97019C13.2119 6.28904 14.5566 6.28879 15.8808 5.97139L17.3906 10.663C15.0068 12.0558 12.6997 12.0566 10.3598 10.6662L11.872 5.97019Z" fill="white" fill-opacity="0.6"/>
<path d="M6.95799 5.72119H8.15379C8.43014 5.72119 8.65379 5.49729 8.65379 5.22119C8.65379 4.94509 8.43014 4.72119 8.15379 4.72119H6.95799C6.68164 4.72119 6.45799 4.94509 6.45799 5.22119C6.45799 5.49729 6.68164 5.72119 6.95799 5.72119Z" fill="white" fill-opacity="0.6"/>
<path d="M6.95799 7.52124H8.15379C8.43014 7.52124 8.65379 7.29734 8.65379 7.02124C8.65379 6.74514 8.43014 6.52124 8.15379 6.52124H6.95799C6.68164 6.52124 6.45799 6.74514 6.45799 7.02124C6.45799 7.29734 6.68164 7.52124 6.95799 7.52124Z" fill="white" fill-opacity="0.6"/>
<path d="M11.0645 20.5176H6.27C5.99365 20.5176 5.77 20.7412 5.77 21.0176C5.77 21.2939 5.99365 21.5176 6.27 21.5176H11.0645C11.3408 21.5176 11.5645 21.2939 11.5645 21.0176C11.5645 20.7412 11.3408 20.5176 11.0645 20.5176Z" fill="white" fill-opacity="0.6"/>
<path d="M18.5723 20.0815C18.2959 20.0815 18.0723 20.3169 18.0723 20.5932C18.0723 20.8696 18.2959 21.0932 18.5723 21.0932C18.8486 21.0932 19.0723 20.8696 19.0723 20.5932V20.5693C19.0723 20.2929 18.8487 20.0815 18.5723 20.0815Z" fill="white" fill-opacity="0.6"/>
<path d="M21.1919 20.0815C20.9155 20.0815 20.6919 20.3169 20.6919 20.5932C20.6919 20.8696 20.9155 21.0932 21.1919 21.0932C21.4682 21.0932 21.6919 20.8696 21.6919 20.5932V20.5693C21.6919 20.2929 21.4682 20.0815 21.1919 20.0815Z" fill="white" fill-opacity="0.6"/>
<path d="M21.1919 22.0991C20.9155 22.0991 20.6919 22.3345 20.6919 22.6108C20.6919 22.8872 20.9155 23.1108 21.1919 23.1108C21.4682 23.1108 21.6919 22.8872 21.6919 22.6108V22.5869C21.6919 22.3106 21.4682 22.0991 21.1919 22.0991Z" fill="white" fill-opacity="0.6"/>
<path d="M18.5723 22.0991C18.2959 22.0991 18.0723 22.3345 18.0723 22.6108C18.0723 22.8872 18.2959 23.1108 18.5723 23.1108C18.8486 23.1108 19.0723 22.8872 19.0723 22.6108V22.5869C19.0723 22.3106 18.8487 22.0991 18.5723 22.0991Z" fill="white" fill-opacity="0.6"/>
<path d="M26.9887 21.0171H24.1162V19.6572C24.1162 19.0063 23.5864 18.4766 22.9355 18.4766H17.1865V17.0689H23.6899C24.956 17.0689 25.9863 16.0387 25.9863 14.7723V2.79665C25.9863 1.53025 24.956 0.5 23.6899 0.5H4.063C2.7964 0.5 1.7661 1.53025 1.7661 2.79665V14.7723C1.7661 16.0386 2.79635 17.0689 4.063 17.0689H10.5644V18.4766H4.8159C4.16455 18.4766 3.63475 19.0064 3.63475 19.6572V23.5293C3.63475 24.1807 4.16455 24.7104 4.8159 24.7104H22.9355C23.5864 24.7104 24.1162 24.1807 24.1162 23.5293V22.0171H26.9887C28.5312 22.0171 29.2334 23.5693 29.2334 25.0112C29.2334 25.8135 29.0161 26.5845 28.6372 27.1275C28.2304 27.71 27.6757 28.0054 26.9887 28.0054H13.0547C12.8357 27.2455 12.1418 26.6846 11.3125 26.6846H7.61525V26.6162C7.61525 26.0073 7.12015 25.5123 6.51125 25.5123H5.29835C4.69045 25.5123 4.1958 26.0073 4.1958 26.6162V30.396C4.1958 31.0049 4.69045 31.5 5.29835 31.5H6.51125C7.12015 31.5 7.61525 31.0049 7.61525 30.396V30.3282H11.3125C12.142 30.3282 12.8361 29.7664 13.0548 29.0054H26.9887C27.9926 29.0054 28.8691 28.5416 29.4575 27.6998C29.958 26.983 30.2334 26.0279 30.2334 25.0113C30.2334 23.0263 29.1191 21.0171 26.9887 21.0171ZM2.7661 14.7722V2.79665C2.7661 2.08155 3.34765 1.5 4.063 1.5H23.6899C24.4048 1.5 24.9863 2.08155 24.9863 2.79665V14.7723C24.9863 15.4874 24.4048 16.0689 23.6899 16.0689H4.063C3.34765 16.0688 2.7661 15.4873 2.7661 14.7722ZM11.5644 17.0688H16.1865V18.4765H11.5644V17.0688V17.0688ZM23.1162 23.5293C23.1162 23.6275 23.0337 23.7104 22.9355 23.7104H4.8159C4.71775 23.7104 4.63475 23.6275 4.63475 23.5293V19.6572C4.63475 19.5591 4.71775 19.4766 4.8159 19.4766H22.9355C23.0337 19.4766 23.1162 19.5591 23.1162 19.6572V23.5293ZM6.61525 30.396C6.61525 30.4512 6.5664 30.5 6.51125 30.5H5.29835C5.2427 30.5 5.1958 30.4521 5.1958 30.396V26.6162C5.1958 26.56 5.2427 26.5122 5.29835 26.5122H6.51125C6.56645 26.5122 6.61525 26.561 6.61525 26.6162V30.396ZM11.3125 29.3281H7.61525V27.6846H11.3125C11.7651 27.6846 12.1333 28.0527 12.1333 28.5054C12.1333 28.959 11.7651 29.3281 11.3125 29.3281Z" fill="white" fill-opacity="0.6"/>
<path d="M19.3833 5.72119H20.5777C20.854 5.72119 21.0777 5.49729 21.0777 5.22119C21.0777 4.94509 20.854 4.72119 20.5777 4.72119H19.3833C19.107 4.72119 18.8833 4.94509 18.8833 5.22119C18.8833 5.49729 19.107 5.72119 19.3833 5.72119Z" fill="white" fill-opacity="0.6"/>
<path d="M19.3833 13.0205H20.5777C20.854 13.0205 21.0777 12.7966 21.0777 12.5205C21.0777 12.2444 20.854 12.0205 20.5777 12.0205H19.3833C19.107 12.0205 18.8833 12.2444 18.8833 12.5205C18.8833 12.7966 19.107 13.0205 19.3833 13.0205Z" fill="white" fill-opacity="0.6"/>
</svg>
