<svg width="20" height="20" viewBox="0 0 20 20" fill="none" xmlns="http://www.w3.org/2000/svg">
<path d="M10 3.7334C9.3704 3.7334 8.75493 3.9201 8.23144 4.26989C7.70794 4.61968 7.29992 5.11684 7.05898 5.69852C6.81804 6.2802 6.755 6.92026 6.87783 7.53777C7.00066 8.15528 7.30385 8.72249 7.74904 9.16769C8.19424 9.61289 8.76146 9.91607 9.37896 10.0389C9.99647 10.1617 10.6365 10.0987 11.2182 9.85775C11.7999 9.61681 12.2971 9.20879 12.6468 8.6853C12.9966 8.1618 13.1833 7.54634 13.1833 6.91673C13.1833 6.07246 12.8479 5.26277 12.251 4.66578C11.654 4.06878 10.8443 3.7334 10 3.7334ZM10 8.98895C9.59015 8.98895 9.18951 8.86742 8.84874 8.63972C8.50796 8.41202 8.24236 8.08839 8.08552 7.70974C7.92868 7.33109 7.88764 6.91443 7.9676 6.51246C8.04755 6.11049 8.24491 5.74125 8.53472 5.45145C8.82452 5.16164 9.19376 4.96428 9.59573 4.88433C9.9977 4.80437 10.4144 4.84541 10.793 5.00225C11.1717 5.15909 11.4953 5.42469 11.723 5.76547C11.9507 6.10624 12.0722 6.50688 12.0722 6.91673C12.0708 7.46536 11.8518 7.99101 11.4633 8.37842C11.0749 8.76584 10.5486 8.9834 10 8.9834V8.98895Z" fill="#57B690"/>
<path d="M10 1.11108C8.26955 1.11253 6.60999 1.79869 5.38378 3.01969C4.15757 4.2407 3.46436 5.89733 3.45555 7.62775C3.45555 10.2222 4.91111 12.3944 5.97777 13.9778L6.17222 14.2666C7.23348 15.8048 8.37198 17.2881 9.58333 18.7111L10.0056 19.2055L10.4278 18.7111C11.639 17.288 12.7775 15.8046 13.8389 14.2666L14.0333 13.9722C15.0944 12.3889 16.55 10.2222 16.55 7.62775C16.5412 5.89636 15.8472 4.2389 14.6198 3.01773C13.3924 1.79657 11.7314 1.11106 10 1.11108ZM13.1056 13.3333L12.9056 13.6278C11.95 15.0611 10.6833 16.6666 10 17.4611C9.34444 16.6666 8.05 15.0611 7.09444 13.6278L6.9 13.3333C5.91666 11.8666 4.56666 9.86108 4.56666 7.60553C4.56666 6.89201 4.7072 6.18548 4.98025 5.52628C5.2533 4.86708 5.65352 4.26811 6.15805 3.76358C6.66258 3.25905 7.26155 2.85883 7.92075 2.58578C8.57995 2.31273 9.28648 2.17219 10 2.17219C10.7135 2.17219 11.42 2.31273 12.0792 2.58578C12.7384 2.85883 13.3374 3.25905 13.8419 3.76358C14.3465 4.26811 14.7467 4.86708 15.0197 5.52628C15.2928 6.18548 15.4333 6.89201 15.4333 7.60553C15.4333 9.88331 14.0889 11.8889 13.1056 13.3333Z" fill="#57B690"/>
</svg>
