<svg width="191" height="30" viewBox="0 0 191 30" fill="none" xmlns="http://www.w3.org/2000/svg">
<path d="M18.7608 11.0643H12.6094L0 30H6.13809L9.13214 25.5085H15.6798L18.7608 20.9072H12.1994L18.7608 11.0643Z" fill="#57B690"/>
<path d="M20.2937 0H26.4318V30H20.2937V8.87515H14.3355L20.2937 0Z" fill="#56C0E7"/>
<path d="M41.6118 19.38C41.6118 21.1533 42.6852 22.04 44.8318 22.04H48.7518V16.72H44.8318C42.6852 16.72 41.6118 17.6067 41.6118 19.38ZM48.7518 14.76C48.7518 13.416 48.3972 12.4267 47.6878 11.792C46.9972 11.1573 46.0918 10.84 44.9718 10.84C44.1318 10.84 43.3105 10.9707 42.5078 11.232C41.7052 11.4747 40.9865 11.8107 40.3518 12.24L39.3718 10.56C39.7825 10.28 40.2305 10.0373 40.7158 9.832C41.2198 9.62667 41.7332 9.45867 42.2558 9.328C42.7785 9.17867 43.2918 9.06667 43.7958 8.992C44.3185 8.91733 44.8038 8.88 45.2518 8.88C46.4465 8.88 47.5012 9.02 48.4158 9.3C49.3305 9.58 50.1052 9.98133 50.7398 10.504C51.3745 11.0267 51.8505 11.652 52.1678 12.38C52.5038 13.0893 52.6718 13.8827 52.6718 14.76V24H44.8318C42.2932 24 40.4172 23.6173 39.2038 22.852C38.0092 22.0867 37.4118 20.9293 37.4118 19.38C37.4118 17.8307 38.0092 16.6733 39.2038 15.908C40.4172 15.1427 42.2932 14.76 44.8318 14.76H48.7518ZM65.9587 22.6C66.8734 22.6 67.7227 22.4413 68.5067 22.124C69.3094 21.8067 70.0934 21.3587 70.8587 20.78L71.9787 22.46C71.624 22.7773 71.204 23.0667 70.7187 23.328C70.252 23.5893 69.7387 23.8133 69.1787 24C68.6374 24.168 68.068 24.2987 67.4707 24.392C66.8734 24.504 66.276 24.56 65.6787 24.56C64.3534 24.56 63.14 24.3827 62.0387 24.028C60.956 23.692 60.032 23.1973 59.2667 22.544C58.5014 21.872 57.904 21.0507 57.4747 20.08C57.064 19.1093 56.8587 17.9893 56.8587 16.72C56.8587 15.4693 57.0547 14.3587 57.4467 13.388C57.8574 12.3987 58.4174 11.5773 59.1267 10.924C59.8547 10.252 60.7134 9.748 61.7027 9.412C62.692 9.05733 63.784 8.88 64.9787 8.88C66.0987 8.88 67.1534 9.048 68.1427 9.384C69.132 9.72 69.9907 10.2147 70.7187 10.868C71.4467 11.5027 72.0254 12.2773 72.4547 13.192C72.884 14.1067 73.0987 15.1427 73.0987 16.3V18.26H61.1427C61.3667 19.8093 61.8987 20.92 62.7387 21.592C63.5974 22.264 64.6707 22.6 65.9587 22.6ZM64.9787 10.7C64.4374 10.7 63.9334 10.8027 63.4667 11.008C63 11.2133 62.5894 11.54 62.2347 11.988C61.8987 12.436 61.6187 13.0147 61.3947 13.724C61.1894 14.4333 61.0774 15.292 61.0587 16.3H68.8987C68.8987 15.3293 68.7867 14.4893 68.5627 13.78C68.3387 13.0707 68.04 12.492 67.6667 12.044C67.312 11.5773 66.892 11.2413 66.4067 11.036C65.94 10.812 65.464 10.7 64.9787 10.7ZM80.7965 12.52C80.7965 12.9493 80.9832 13.3413 81.3565 13.696C81.7485 14.0507 82.4019 14.3587 83.3165 14.62L87.6565 15.88C89.0005 16.272 90.0365 16.804 90.7645 17.476C91.4925 18.148 91.8565 19.016 91.8565 20.08C91.8565 20.752 91.7165 21.368 91.4365 21.928C91.1565 22.4693 90.6992 22.936 90.0645 23.328C89.4299 23.72 88.6085 24.0187 87.6005 24.224C86.5925 24.448 85.3512 24.56 83.8765 24.56C83.1112 24.56 82.3552 24.504 81.6085 24.392C80.8805 24.28 80.1805 24.1307 79.5085 23.944C78.8552 23.7387 78.2579 23.5147 77.7165 23.272C77.1752 23.0107 76.7085 22.74 76.3165 22.46L77.4365 20.78C78.2205 21.2653 79.1352 21.6947 80.1805 22.068C81.2445 22.4227 82.4765 22.6 83.8765 22.6C85.2765 22.6 86.2565 22.4133 86.8165 22.04C87.3765 21.6667 87.6565 21.2 87.6565 20.64C87.6565 20.2107 87.4605 19.828 87.0685 19.492C86.6765 19.1373 85.9859 18.82 84.9965 18.54L80.6565 17.28C79.4619 16.9253 78.4819 16.4213 77.7165 15.768C76.9699 15.096 76.5965 14.2 76.5965 13.08C76.5965 12.4827 76.7272 11.932 76.9885 11.428C77.2685 10.9053 77.6979 10.4573 78.2765 10.084C78.8552 9.71067 79.5925 9.42133 80.4885 9.216C81.3845 8.992 82.4672 8.88 83.7365 8.88C85.2859 8.88 86.6859 9.09467 87.9365 9.524C89.2059 9.93467 90.2325 10.42 91.0165 10.98L89.8965 12.66C89.1312 12.1747 88.2632 11.7547 87.2925 11.4C86.3219 11.0267 85.1365 10.84 83.7365 10.84C82.7472 10.84 82.0099 10.9987 81.5245 11.316C81.0392 11.6333 80.7965 12.0347 80.7965 12.52ZM96.4962 11.4H93.8362V9.44H96.4962V4.96H100.416V9.44H104.756V11.4H100.416V18.68C100.416 19.3893 100.491 19.996 100.64 20.5C100.808 20.9853 101.023 21.3867 101.284 21.704C101.564 22.0027 101.882 22.2267 102.236 22.376C102.591 22.5253 102.964 22.6 103.356 22.6C103.916 22.6 104.458 22.516 104.98 22.348C105.503 22.1613 105.942 21.9653 106.296 21.76L107.136 23.58C106.576 23.86 105.932 24.0933 105.204 24.28C104.495 24.4667 103.786 24.56 103.076 24.56C100.967 24.56 99.3429 24.0373 98.2042 22.992C97.0655 21.9467 96.4962 20.5093 96.4962 18.68V11.4ZM125.893 24H121.973V15.18C121.973 13.836 121.637 12.8747 120.965 12.296C120.293 11.6987 119.322 11.4 118.053 11.4H114.413V24H110.493V4.4H114.413V9.44H118.053C120.722 9.44 122.692 9.92533 123.961 10.896C125.249 11.848 125.893 13.276 125.893 15.18V24ZM139.181 22.6C140.096 22.6 140.945 22.4413 141.729 22.124C142.532 21.8067 143.316 21.3587 144.081 20.78L145.201 22.46C144.846 22.7773 144.426 23.0667 143.941 23.328C143.474 23.5893 142.961 23.8133 142.401 24C141.86 24.168 141.29 24.2987 140.693 24.392C140.096 24.504 139.498 24.56 138.901 24.56C137.576 24.56 136.362 24.3827 135.261 24.028C134.178 23.692 133.254 23.1973 132.489 22.544C131.724 21.872 131.126 21.0507 130.697 20.08C130.286 19.1093 130.081 17.9893 130.081 16.72C130.081 15.4693 130.277 14.3587 130.669 13.388C131.08 12.3987 131.64 11.5773 132.349 10.924C133.077 10.252 133.936 9.748 134.925 9.412C135.914 9.05733 137.006 8.88 138.201 8.88C139.321 8.88 140.376 9.048 141.365 9.384C142.354 9.72 143.213 10.2147 143.941 10.868C144.669 11.5027 145.248 12.2773 145.677 13.192C146.106 14.1067 146.321 15.1427 146.321 16.3V18.26H134.365C134.589 19.8093 135.121 20.92 135.961 21.592C136.82 22.264 137.893 22.6 139.181 22.6ZM138.201 10.7C137.66 10.7 137.156 10.8027 136.689 11.008C136.222 11.2133 135.812 11.54 135.457 11.988C135.121 12.436 134.841 13.0147 134.617 13.724C134.412 14.4333 134.3 15.292 134.281 16.3H142.121C142.121 15.3293 142.009 14.4893 141.785 13.78C141.561 13.0707 141.262 12.492 140.889 12.044C140.534 11.5773 140.114 11.2413 139.629 11.036C139.162 10.812 138.686 10.7 138.201 10.7ZM151.372 11.4H148.712V9.44H151.372V4.96H155.292V9.44H159.632V11.4H155.292V18.68C155.292 19.3893 155.366 19.996 155.516 20.5C155.684 20.9853 155.898 21.3867 156.16 21.704C156.44 22.0027 156.757 22.2267 157.112 22.376C157.466 22.5253 157.84 22.6 158.232 22.6C158.792 22.6 159.333 22.516 159.856 22.348C160.378 22.1613 160.817 21.9653 161.172 21.76L162.012 23.58C161.452 23.86 160.808 24.0933 160.08 24.28C159.37 24.4667 158.661 24.56 157.952 24.56C155.842 24.56 154.218 24.0373 153.08 22.992C151.941 21.9467 151.372 20.5093 151.372 18.68V11.4ZM169.429 24H165.509V9.72H169.429V24ZM169.569 5.94C169.569 6.5 169.373 6.99467 168.981 7.424C168.607 7.83467 168.103 8.04 167.469 8.04C166.834 8.04 166.321 7.83467 165.929 7.424C165.555 6.99467 165.369 6.5 165.369 5.94C165.369 5.38 165.555 4.89467 165.929 4.484C166.321 4.05467 166.834 3.84 167.469 3.84C168.085 3.84 168.589 4.05467 168.981 4.484C169.373 4.89467 169.569 5.38 169.569 5.94ZM182.45 8.88C183.047 8.88 183.644 8.936 184.242 9.048C184.839 9.14133 185.408 9.28133 185.95 9.468C186.51 9.636 187.023 9.85067 187.49 10.112C187.975 10.3733 188.395 10.6627 188.75 10.98L187.63 12.66C186.864 12.0813 186.08 11.6333 185.278 11.316C184.494 10.9987 183.644 10.84 182.73 10.84C182.058 10.84 181.442 10.952 180.882 11.176C180.322 11.3813 179.836 11.7267 179.426 12.212C179.015 12.6787 178.688 13.2853 178.446 14.032C178.222 14.7787 178.11 15.6747 178.11 16.72C178.11 17.7653 178.222 18.6613 178.446 19.408C178.688 20.1547 179.024 20.7707 179.454 21.256C179.883 21.7227 180.396 22.068 180.994 22.292C181.61 22.4973 182.282 22.6 183.01 22.6C183.924 22.6 184.774 22.4413 185.558 22.124C186.36 21.8067 187.144 21.3587 187.91 20.78L189.03 22.46C188.675 22.7773 188.255 23.0667 187.77 23.328C187.303 23.5893 186.79 23.8133 186.23 24C185.688 24.168 185.119 24.2987 184.522 24.392C183.924 24.504 183.327 24.56 182.73 24.56C181.404 24.56 180.191 24.3827 179.09 24.028C178.007 23.692 177.083 23.1973 176.318 22.544C175.552 21.872 174.955 21.0507 174.526 20.08C174.115 19.1093 173.91 17.9893 173.91 16.72C173.91 15.4693 174.115 14.3587 174.526 13.388C174.955 12.3987 175.543 11.5773 176.29 10.924C177.036 10.252 177.932 9.748 178.978 9.412C180.023 9.05733 181.18 8.88 182.45 8.88Z" fill="white"/>
</svg>
