<svg width="246" height="87" viewBox="0 0 246 87" fill="none" xmlns="http://www.w3.org/2000/svg">
<path d="M0.361328 32.9608C6.26814 12.2262 19.5686 1.99399 37.5458 2.25081C20.9473 18.6331 22.2855 42.5442 22.2855 42.5442C15.5271 36.2183 8.39026 32.0417 0.361328 32.9608Z" fill="#4C8C26"/>
<path d="M82.4208 32.9608C76.514 12.2262 63.2136 1.99399 45.2363 2.25081C61.8213 18.6331 60.4967 42.5442 60.4967 42.5442C67.2551 36.2183 74.3919 32.0417 82.4208 32.9608Z" fill="#4C8C26"/>
<path d="M43.6142 81.8791C86.5568 81.8791 82.3261 34.7598 82.3261 34.7598C57.4823 43.3564 43.425 58.4275 43.6142 81.8791Z" fill="url(#paint0_linear_235_7596)"/>
<path d="M39.1814 81.8791C-3.69368 81.8791 0.469469 34.7598 0.469469 34.7598C25.2997 43.3564 39.3571 58.4275 39.1814 81.8791Z" fill="url(#paint1_linear_235_7596)"/>
<path d="M41.2627 57.7643C5.06492 46.0723 41.2627 0.304688 41.2627 0.304688C41.2627 0.304688 78.9744 45.5046 41.2627 57.7643Z" fill="url(#paint2_linear_235_7596)"/>
<path d="M104.224 4.81836L111.59 4.95353V19.2677C111.667 20.2897 112.112 21.2491 112.843 21.9676C113.574 22.686 114.541 23.1147 115.564 23.1741L119.214 23.3903V4.81836H125.391V41.0972H118.416V30.1081C108.225 29.7162 104.507 26.3775 104.44 20.1463" fill="white"/>
<path d="M151.397 4.81836V9.33294H138.638V20.0787H150.222V24.6474H138.638V36.4475H151.397V41.0972H132.258V4.81836H151.397Z" fill="white"/>
<path d="M178.605 49.5742V54.0888H165.846V64.8346H177.43V69.4032H165.846V81.2033H178.605V85.8531H159.466V49.5742H178.605Z" fill="white"/>
<path d="M162.562 37.9614C161.645 39.5542 160.174 40.754 158.429 41.3323C156.684 41.9106 154.788 41.8269 153.101 41.0972C154.885 40.0429 156.547 37.6505 158.007 32.433L159.589 4.81836H178.782V41.0972H172.511V8.48139H164.941L164.549 32.041C164.317 34.1337 163.64 36.1524 162.562 37.9614Z" fill="white"/>
<path d="M135.434 82.4046C134.517 83.9974 133.046 85.1973 131.301 85.7755C129.556 86.3538 127.66 86.2701 125.973 85.5405C127.757 84.4726 129.419 82.0802 130.879 76.8627L132.515 49.248H151.749V85.5405H145.477V52.9246H137.908L137.516 76.4842C137.255 78.5842 136.545 80.6033 135.434 82.4046Z" fill="white"/>
<path d="M185.85 4.81836H192.446V20.2274H201.421V4.81836H207.828V41.0972H201.245V24.8096H192.175V41.0972H185.85V4.81836Z" fill="white"/>
<path d="M227.037 18.7271H221.819V4.81836H214.939V41.0972H227.361C229.38 41.0972 231.315 40.2955 232.742 38.8684C234.169 37.4412 234.971 35.5056 234.971 33.4873V26.6614C234.971 24.5571 234.135 22.5389 232.647 21.051C231.159 19.563 229.141 18.7271 227.037 18.7271ZM229.159 32.2438C229.159 35.5959 227.807 38.3263 224.428 38.3263H222.103V23.2822H225.091C226.166 23.2822 227.197 23.7094 227.958 24.4699C228.718 25.2304 229.146 26.2618 229.146 27.3372L229.159 32.2438Z" fill="white"/>
<path d="M195.352 63.4829H190.135V49.5742H183.255V85.8531H195.677C197.693 85.8495 199.625 85.0462 201.049 83.6194C202.473 82.1927 203.273 80.2591 203.273 78.2432V71.4848C203.284 70.4378 203.087 69.3991 202.694 68.4288C202.3 67.4584 201.719 66.5756 200.982 65.8315C200.245 65.0873 199.369 64.4966 198.402 64.0935C197.436 63.6904 196.399 63.4829 195.352 63.4829ZM197.474 76.9997C197.474 80.3518 196.123 83.0822 192.744 83.0822H190.419V68.0245H193.406C194.481 68.0245 195.513 68.4518 196.273 69.2122C197.034 69.9727 197.461 71.0041 197.461 72.0796L197.474 76.9997ZM188.243 54.67H201.894L202.016 49.5742H190.013L188.243 54.67Z" fill="white"/>
<path d="M246 4.81836H239.35V41.0972H246V4.81836Z" fill="white"/>
<path d="M103.196 49.748H109.454L113.901 62.8593L119.146 49.748H125.39L118.335 67.9145L125.39 82.6477V85.6755H120.348L114.293 70.9423L108.846 85.6755H101.79L108.846 67.7118L103.196 49.748Z" fill="white"/>
<defs>
<linearGradient id="paint0_linear_235_7596" x1="63.0265" y1="34.7598" x2="63.0265" y2="81.8791" gradientUnits="userSpaceOnUse">
<stop stop-color="#FFEE00"/>
<stop offset="1" stop-color="#FF9559"/>
</linearGradient>
<linearGradient id="paint1_linear_235_7596" x1="19.7712" y1="34.7598" x2="19.7712" y2="81.8791" gradientUnits="userSpaceOnUse">
<stop stop-color="#FFEE00"/>
<stop offset="1" stop-color="#FF9559"/>
</linearGradient>
<linearGradient id="paint2_linear_235_7596" x1="41.5991" y1="0.304687" x2="41.5991" y2="57.7643" gradientUnits="userSpaceOnUse">
<stop stop-color="#FFEE00"/>
<stop offset="1" stop-color="#FF9559"/>
</linearGradient>
</defs>
</svg>
