<svg width="413" height="76" viewBox="0 0 413 76" fill="none" xmlns="http://www.w3.org/2000/svg">
<path d="M0.243327 67.1257L62.2492 8.69922H0.078125L0.243327 67.1257ZM5.97033 68.0618H19.2416L82.2937 8.69922H69.0225L5.97033 68.0618Z" fill="#ADFF00"/>
<path d="M87.6898 22.7965V33.5897H81.6874L71.5 43.3366H87.7449V48.5129H97.0512V8.69922H89.0114L26.3447 68.0618H39.616L87.029 23.4022L87.6898 22.7965ZM137.085 37.3893L136.975 36.8386L136.865 36.288L136.7 35.7373L136.479 35.1866L136.259 34.636L135.984 34.0853L135.709 33.5346L135.323 33.039L134.938 32.4883L134.552 31.9927L134.057 31.4971L133.561 31.0566L133.01 30.561L132.405 30.1204L132.019 29.9002L132.349 29.5698L132.79 29.0191L133.175 28.4684L133.616 27.9177L133.946 27.3671L134.277 26.8164L134.552 26.2657L134.827 25.66L135.103 25.1093L135.323 24.5036L135.488 23.9529L135.653 23.3471L135.764 22.7965L135.874 22.1907L135.929 21.6401L135.984 21.0894V19.6026L135.874 18.6664L135.653 17.7853L135.378 16.8492L135.048 16.0232L134.607 15.1972L134.112 14.3712L133.561 13.5451L132.9 12.8293L132.129 12.1134L131.303 11.3975L130.367 10.7918L129.431 10.186L128.33 9.63536L127.779 9.36003L127.228 9.13976L126.567 8.91949L126.017 8.69922H114.342L104.265 18.1708V48.4579H112.47L112.525 18.7215V18.336H126.072L126.182 18.3911L126.567 18.6113L126.953 18.8316L127.283 19.107L127.504 19.4374L127.724 19.7678L127.944 20.0982L127.999 20.4836L128.054 20.814L127.999 21.1995L127.944 21.5299L127.779 21.8603L127.559 22.1907L127.283 22.4661L126.953 22.7414L126.567 23.0167L126.127 23.237H116.38V33.0941L125.907 33.039H126.072L126.347 33.1491L126.622 33.3143L127.173 33.5897L127.614 33.9201L127.834 34.0853L127.999 34.3055L128.164 34.5258L128.33 34.7461L128.44 34.9664L128.495 35.1866L128.605 35.4069L128.66 35.6272L128.715 35.9025V36.1228L128.66 36.5633L128.55 37.0589L128.33 37.4444L128.164 37.6647L127.999 37.8299L127.834 38.0501L127.614 38.2153L127.393 38.3255L127.173 38.4907L126.898 38.6559L126.622 38.766L126.347 38.8761L126.017 38.9863H116.38L116.325 48.568H128.935L129.816 48.2927L130.752 47.9623L131.523 47.5768L132.294 47.0812L133.065 46.5856L133.726 45.9798L134.332 45.4292L134.938 44.7683L135.433 44.0525L135.874 43.3366L136.204 42.5657L136.535 41.7947L136.81 41.0238L136.975 40.1978L137.085 39.3717L137.14 38.5457L137.085 37.9951V37.3893ZM142.317 19.8228V48.5129H151.788V19.162H163.628L174.09 8.80935H153.605L142.317 19.8228ZM201.018 8.80935L189.399 19.7678L189.124 19.988L188.849 19.7127L178.551 8.97456L172.108 15.2522L182.13 25.6049L182.406 25.8802L182.13 26.1556L170.897 36.6184V49.8345L189.069 32.8187L214.345 8.80935H201.018ZM381.805 22.7965V33.2042L381.86 33.6447H375.802L365.67 43.3366H381.915V43.7771L381.86 48.5129H391.166V8.69922H383.181L352.344 37.8849V50.5504L381.199 23.4022L381.805 22.7965Z" fill="white"/>
<path d="M352.18 8.69922V32.7637L377.401 8.69922H352.18Z" fill="white"/>
<path d="M261.539 19.5487V19.1632H264.843L275.25 8.81055H253.664L242.926 19.2733H252.783V19.6588L252.728 48.5141H261.539V19.5487ZM299.095 24.2845V25.2206L299.26 48.6793L309.998 48.5692V8.81055H301.077L283.841 25.3858L283.18 26.0466V25.1105L283.125 9.30615L273.268 18.6676V48.1837L298.434 24.9453L299.095 24.2845ZM338.413 25.1105V25.496H324.536V9.36122L314.624 18.6676V48.7344H324.866V34.7473H338.523L338.468 35.1878V48.5692H347.939L347.994 8.81055H338.523L338.413 25.1105Z" fill="white"/>
<path d="M224.975 47.9081L225.966 48.1283L227.013 48.3486L228.059 48.5138L229.215 48.679L230.317 48.7341H232.464L233.456 48.679L234.502 48.5689L235.218 48.5138V40.3088H235.053L234.392 40.3638L233.786 40.4189H232.464L231.804 40.3638L231.088 40.3088L230.427 40.1986L229.821 40.0334L229.215 39.8682L228.61 39.703L228.059 39.4827L227.508 39.2625L226.958 38.9871L226.462 38.7118L225.966 38.4365L225.526 38.1061L225.085 37.7757L224.645 37.3902L224.259 37.0598L223.874 36.6192L223.543 36.2338L223.213 35.8483L222.883 35.4078L222.607 34.9672L222.387 34.4716L222.167 34.0311L221.947 33.5355L221.726 33.0949L221.561 32.5993L221.451 32.1037L221.341 31.553L221.231 31.0574L221.176 30.5618L221.121 30.0662V29.075L221.176 28.5794L221.231 28.0838L221.341 27.5882L221.451 27.0926L221.561 26.597L221.726 26.1564L221.947 25.6608L222.167 25.2203L222.387 24.7798L222.607 24.3392L222.938 23.8987L223.213 23.5132L223.543 23.0727L223.929 22.6872L224.314 22.3017L224.7 21.9163L225.14 21.5859L225.581 21.2554L226.132 20.9801L226.627 20.7048L227.178 20.3744L227.729 20.1541L228.334 19.9338L228.94 19.7686L229.601 19.5484L230.262 19.3832L230.978 19.273L231.693 19.1629L232.464 19.1078L233.235 19.0528H234.061L235.053 19.1078L235.879 19.1629L246.121 9.19569H241.055L239.513 9.14062H236.98L235.934 9.19569H234.887L233.896 9.25076H232.96L232.024 9.30583L231.088 9.36089L230.207 9.41596L229.381 9.5261L228.5 9.63623L227.674 9.80143L226.903 9.96664L226.132 10.1318L225.361 10.3521L224.59 10.5724L223.874 10.8477L223.048 11.1781L222.277 11.5085L221.506 11.894L220.79 12.2795L220.074 12.6649L219.413 13.1055L218.753 13.546L218.147 13.9866L217.541 14.4822L216.99 14.9227L216.44 15.4183L215.944 15.9139L215.504 16.4646L215.008 17.0153L214.568 17.5659L214.182 18.1166L213.797 18.7223L213.466 19.3281L213.136 19.8788L212.86 20.5396L212.585 21.1453L212.31 21.7511L212.089 22.4119L211.924 23.0727L211.704 23.7335L211.539 24.3943L211.429 25.1102L211.319 25.771L211.263 26.4318L211.208 27.1477L211.153 28.5243L211.208 29.7358L211.263 30.9473L211.374 31.7733L211.484 32.6544L211.704 33.4804L211.869 34.3064L212.145 35.1875L212.42 36.0135L212.695 36.8395L213.026 37.6105L213.411 38.3814L213.797 39.1523L214.237 39.8682L214.733 40.6392L215.228 41.3L215.779 42.0159L216.33 42.6767L216.935 43.2824L217.596 43.8881L218.257 44.4939L218.973 45.0446L219.744 45.5402L220.515 46.0358L221.341 46.4763L222.222 46.8618L223.103 47.2473L224.039 47.5777L224.975 47.9081Z" fill="white"/>
<path d="M78.2163 66.5745H74.7471V64.1515H84.494V66.5745H81.0247V75.6055H78.2163V66.5745ZM106.576 63.9863C110.045 63.9863 112.523 66.5194 112.523 69.8235C112.523 73.1826 109.99 75.7708 106.576 75.7708C103.162 75.7708 100.629 73.1275 100.629 69.8235C100.629 66.5194 103.162 63.9863 106.576 63.9863ZM106.576 73.2376C108.283 73.2376 109.66 71.7508 109.66 69.8235C109.66 67.9512 108.283 66.5745 106.576 66.5745C104.869 66.5745 103.492 68.0062 103.492 69.8235C103.492 71.7508 104.869 73.2376 106.576 73.2376ZM129.759 64.1515H134.495C136.698 64.1515 138.24 65.8036 138.24 68.0613C138.24 70.3191 136.753 72.0262 134.495 72.0262H132.568V75.5505H129.759V64.1515ZM133.889 69.6583C134.881 69.6583 135.321 68.9975 135.321 68.1164C135.321 67.2353 134.826 66.5745 133.889 66.5745H132.458V69.6583H133.889ZM155.09 64.1515H162.084V66.5745H157.899V75.6055H155.09V64.1515ZM184.166 63.9863C187.635 63.9863 190.113 66.5194 190.113 69.8235C190.113 73.1826 187.58 75.7708 184.166 75.7708C180.752 75.7708 178.219 73.1275 178.219 69.8235C178.219 66.5194 180.752 63.9863 184.166 63.9863ZM184.166 73.2376C185.873 73.2376 187.25 71.7508 187.25 69.8235C187.25 67.9512 185.873 66.5745 184.166 66.5745C182.459 66.5745 181.082 68.0062 181.082 69.8235C181.082 71.7508 182.459 73.2376 184.166 73.2376ZM207.349 64.1515H211.534C213.792 64.1515 215.389 65.1978 215.389 67.1252C215.389 68.0613 214.949 69.0525 214.068 69.5481V69.6032C215.389 69.9887 215.83 71.1451 215.83 72.1914C215.83 74.6694 213.737 75.6055 211.479 75.6055H207.294V64.1515H207.349ZM211.534 68.612C212.25 68.612 212.526 68.1164 212.526 67.5657C212.526 67.015 212.195 66.5745 211.479 66.5745H210.103V68.612H211.534ZM211.81 73.1826C212.636 73.1826 213.021 72.6319 213.021 71.9711C213.021 71.3103 212.636 70.8147 211.81 70.8147H210.103V73.1826H211.81ZM235.764 64.1515H238.683L242.537 75.5505H239.674L238.958 73.1275H235.379L234.718 75.5505H231.854L235.764 64.1515ZM238.352 70.9799L237.691 68.7772C237.471 68.0613 237.251 66.7948 237.251 66.7948H237.196C237.196 66.7948 236.92 68.0613 236.755 68.7772L236.094 70.9799H238.352ZM260.93 71.916C261.26 71.3654 261.37 71.2552 261.37 71.2552V71.2002C260.104 70.4843 259.553 69.1627 259.553 67.841C259.553 66.0789 260.434 64.9225 261.646 64.4819C262.141 64.3167 262.692 64.2066 263.848 64.2066H267.813V75.6055H265.005V71.7508H263.959L261.811 75.6055H258.672L260.93 71.916ZM265.06 69.438V66.5745H264.124C263.463 66.5745 263.022 66.6846 262.802 66.9049C262.527 67.1252 262.417 67.5657 262.417 67.9512C262.417 68.9975 262.967 69.438 263.848 69.438H265.06ZM310.931 63.9863C312.473 63.9863 314.07 64.4819 315.226 65.5833L313.96 67.6758C313.244 67.015 312.143 66.5194 311.096 66.5194C308.838 66.5194 307.847 68.1164 307.847 69.7684C307.847 71.4755 308.894 73.1826 311.096 73.1826C312.253 73.1826 313.354 72.5768 314.125 71.7508L315.557 73.7883C314.565 74.8346 313.024 75.7157 310.931 75.7157C307.242 75.7157 304.929 73.1826 304.929 69.7684C304.929 66.5194 307.352 63.9863 310.931 63.9863ZM332.352 64.1515H339.511V66.5745H335.161V68.6671H338.63V71.09H335.161V73.2376H339.731V75.6606H332.352V64.1515ZM359.611 66.5745H356.141V64.1515H365.888V66.5745H362.419V75.6055H359.611V66.5745ZM382.739 64.1515H385.547V67.6758H387.475C389.677 67.6758 391.219 69.3279 391.219 71.6407C391.219 73.9535 389.732 75.5505 387.475 75.5505H382.739V64.1515ZM386.924 73.1826C387.86 73.1826 388.356 72.5768 388.356 71.6407C388.356 70.7046 387.86 70.0988 386.924 70.0988H385.547V73.1826H386.924Z" fill="white"/>
<path d="M404.825 2.86404C405.265 2.80897 405.871 2.75391 406.477 2.75391C407.358 2.75391 407.963 2.91911 408.349 3.24951C408.679 3.52485 408.844 3.96539 408.844 4.46099C408.844 5.23194 408.294 5.78261 407.743 6.00288C408.184 6.16808 408.459 6.60862 408.569 7.1593C408.734 7.93024 408.9 8.59105 409.065 8.86638H407.908C407.798 8.70118 407.688 8.20558 407.523 7.43463C407.358 6.66369 407.082 6.38835 406.422 6.38835H405.871V8.81132H404.77V2.86404H404.825ZM405.926 5.56234H406.587C407.358 5.56234 407.798 5.17687 407.798 4.57113C407.798 3.91032 407.358 3.57992 406.587 3.57992C406.256 3.57992 406.036 3.57992 405.926 3.63498V5.56234Z" fill="white"/>
<path d="M406.529 11.5641C403.335 11.5641 400.747 8.97598 400.747 5.78207C400.747 2.58817 403.335 0 406.529 0C409.723 0 412.311 2.58817 412.311 5.78207C412.311 8.97598 409.723 11.5641 406.529 11.5641ZM406.529 0.881078C403.831 0.881078 401.628 3.08377 401.628 5.78207C401.628 8.48038 403.831 10.6831 406.529 10.6831C409.227 10.6831 411.43 8.48038 411.43 5.78207C411.43 3.08377 409.283 0.881078 406.529 0.881078Z" fill="white"/>
</svg>
