<svg width="304" height="112" viewBox="0 0 304 112" fill="none" xmlns="http://www.w3.org/2000/svg">
<path d="M302.509 74.0574C290.103 73.9266 277.732 72.8982 265.356 72.387C257.159 72.0481 248.957 71.8272 240.752 71.7242C224.978 71.528 209.201 71.5161 193.431 72.0749C182.026 72.4791 170.622 72.9666 159.25 73.7423C150.375 74.3368 141.497 74.9312 132.633 75.6505C123.327 76.4173 114.039 77.3833 104.763 78.4593C94.7522 79.6184 84.7654 80.95 74.8025 82.454C61.0786 84.5425 47.4182 86.9807 33.8212 89.7687C27.7221 91.0111 21.635 92.2564 16.0293 95.1692C8.77406 98.9321 3.71828 104.734 0 111.849C0.719283 112.194 1.25429 111.864 1.80712 111.671C3.88769 110.931 5.96826 110.134 8.08747 109.451C25.6683 103.753 43.582 99.3066 61.6324 95.3832C75.7744 92.3099 90.0085 89.736 104.302 87.4563C113.329 86.0266 122.382 84.7634 131.477 83.8628C140.474 82.9711 149.483 82.1746 158.489 81.3721C169.364 80.4061 180.264 79.7165 191.166 79.0626C204.582 78.2581 218.01 77.6984 231.449 77.3833C242.769 77.1079 254.095 77.0762 265.427 77.2882C270.513 77.3863 275.595 77.7251 280.684 77.8351C285.422 77.9391 290.147 78.5663 294.891 78.1888C298.06 77.9332 300.99 77.0593 303.178 74.1792C302.958 74.1242 302.734 74.0835 302.509 74.0574Z" fill="#FF0000"/>
<path d="M256.85 31.4763C256.41 33.1942 256.05 34.933 255.705 36.6718C254.169 44.3996 252.662 52.1453 251.119 59.879C250.947 60.7321 251.012 61.1422 252.058 61.0679C253.785 60.9669 255.524 61.0679 257.251 60.9728C261.347 60.7886 264.86 59.3827 267.416 56.0181C268.792 54.211 270.245 52.4514 271.577 50.6294C273.399 48.1268 275.144 45.5766 277.091 42.7827C277.262 43.4673 277.25 44.185 277.055 44.8633C276.059 49.7913 275.105 54.7281 274.083 59.6472C273.845 60.7915 274.115 61.1541 275.272 61.059C276.6 60.955 277.947 61.0412 279.275 60.9639C285.665 60.6043 289.066 57.9917 290.382 51.8956C292.365 42.7411 294.095 33.5331 295.991 24.3578C296.214 23.2788 295.741 23.1689 294.951 23.1897C292.974 23.258 290.992 23.2402 289.027 23.4453C285.555 23.8049 282.658 25.2286 280.363 28.0047C276.728 32.3888 273.607 37.1295 270.358 41.784C270.061 42.2269 269.728 42.6579 269.41 43.0948C269.574 41.3993 269.859 39.7176 270.263 38.0628C271.244 33.5866 272.323 29.146 273.099 24.6104C273.239 23.793 273.203 23.1748 272.207 23.2016C270.189 23.2491 268.162 23.2491 266.159 23.4631C261.26 24.0011 258.086 26.6642 256.85 31.4763Z" fill="white"/>
<path d="M153.749 32.5679C153.006 35.7809 152.432 39.0326 151.802 42.2723C150.675 48.0771 149.576 53.8849 148.437 59.6867C148.247 60.6586 148.381 61.1728 149.552 61.0747C150.931 60.9677 152.322 61.042 153.713 60.9618C160.204 60.5932 163.29 58.0519 164.898 51.7775C165.141 50.8205 165.341 49.8545 165.531 48.8885C166.143 45.7914 166.125 45.7885 169.368 45.7885H171.151C172.935 45.7885 172.899 45.7885 172.572 47.4856C171.769 51.6468 170.845 55.7811 170.233 59.969C170.099 60.8964 170.337 61.0955 171.175 61.0569C172.661 60.9885 174.147 61.0569 175.633 60.935C182.155 60.4238 185.272 58.0222 186.607 51.9143C188.616 42.727 190.37 33.4863 192.254 24.2724C192.406 23.5234 192.159 23.3807 191.455 23.3124C189.374 23.0746 187.294 23.2707 185.246 23.4669C180.264 23.9484 177.081 26.6472 175.815 31.5068C175.455 32.8889 175.104 34.277 174.861 35.668C174.727 36.4437 174.465 36.7855 173.639 36.7588C172.108 36.7053 170.572 36.7023 169.041 36.7588C168.149 36.7915 167.992 36.5151 168.176 35.6472C168.967 31.8873 169.662 28.1036 170.435 24.3378C170.598 23.5531 170.456 23.3807 169.647 23.2886C168.161 23.1132 166.675 23.2886 165.213 23.3272C158.659 23.4996 155.211 26.24 153.749 32.5679Z" fill="white"/>
<path d="M233.126 60.9695C233.916 60.9695 234.71 61.0171 235.503 60.9695C242.152 60.4999 245.131 58.0419 246.655 51.5832C247.493 48.0343 248.141 44.4498 248.864 40.8831C249.943 35.5182 250.986 30.1444 252.095 24.7854C252.314 23.7154 252.017 23.4212 250.95 23.329C249.374 23.2319 247.792 23.2537 246.218 23.3944C240.274 23.763 236.915 26.3667 235.667 32.1477C233.815 40.7196 232.228 49.3481 230.507 57.9497C229.856 61.1508 229.829 61.1449 233.126 60.9695Z" fill="white"/>
<path d="M278.9 16.723C281.596 17.1124 284.116 16.3723 286.431 15.0823C291.249 12.4073 295.452 8.90006 299.316 4.99751C300.498 3.85136 301.285 2.3602 301.566 0.738281C299.39 1.66265 297.405 2.52163 295.431 3.34197C289.82 5.71976 284.137 7.77061 277.895 7.68739C275.517 7.65766 273.282 6.79571 270.893 6.27557C270.906 7.82903 271.253 9.36151 271.909 10.7696C273.3 13.8429 275.345 16.2088 278.9 16.723Z" fill="white"/>
<path d="M148.074 14.2394C148.689 14.2394 149.236 14.3078 149.299 13.4013C149.373 12.3253 149.611 11.2583 149.765 10.1853C149.846 9.63543 149.857 9.07664 150.681 9.16878C151.412 9.24903 151.754 9.60868 151.679 10.3369C151.575 11.3177 151.454 12.2956 151.344 13.2735C151.281 13.7995 151.263 14.2721 152.03 14.2483C152.604 14.2305 153.088 14.2483 153.148 13.4518C153.225 12.4234 153.49 11.4069 153.564 10.3785C153.62 9.6057 153.861 9.12123 154.696 9.22526C155.588 9.3382 155.787 9.93265 155.653 10.7292C155.52 11.5258 155.392 12.2867 155.323 13.0713C155.288 13.4875 154.869 14.1235 155.716 14.2246C156.34 14.2959 157.009 14.4059 157.086 13.4042C157.172 12.2778 157.466 11.1632 157.514 10.0397C157.576 8.47328 156.72 7.55486 155.163 7.67672C153.605 7.79858 152.069 8.05419 150.746 7.61133C149.557 7.77777 148.312 7.38246 148.095 8.931C147.899 10.3458 147.679 11.7576 147.501 13.1754C147.456 13.6182 147.236 14.2246 148.074 14.2394Z" fill="white"/>
<path d="M231.803 14.3807C233.29 13.9676 233.848 14.0835 233.361 15.739C233.275 16.0363 233.123 16.4761 233.658 16.5742C234.036 16.6456 234.63 16.7318 234.669 16.277C234.773 15.0881 236.256 13.8844 234.612 12.7103C234.276 12.4696 234.374 11.9821 234.425 11.5898C234.541 10.6595 234.669 9.73213 234.776 8.80182C234.835 8.29356 234.889 7.78234 234.107 7.80017C233.539 7.80017 233.037 7.80017 232.969 8.59376C232.879 9.67268 232.6 10.7397 232.561 11.8186C232.526 12.7371 232.059 12.8857 231.328 12.8143C230.597 12.743 230.326 12.2972 230.436 11.5838C230.573 10.6922 230.71 9.83021 230.811 8.95043C230.861 8.51648 231.215 7.91014 230.38 7.81503C229.699 7.73775 229.114 7.77936 229.033 8.7067C228.941 9.78266 228.736 10.8497 228.599 11.7265C228.519 13.8635 229.785 14.9395 231.803 14.3807Z" fill="white"/>
<path d="M90.4108 14.2624C91.4154 14.307 91.3827 13.6353 91.3946 12.9992C91.4124 11.8906 91.888 11.3912 93.0412 11.5725C94.3668 11.7836 93.3711 12.6218 93.4871 13.1508C93.5762 13.5699 93.172 14.2089 94.0221 14.2327C94.5987 14.2476 95.1902 14.3873 95.2882 13.4599C95.4577 11.849 95.7281 10.2469 96.0046 8.65083C96.1264 7.9375 95.7846 7.82752 95.1961 7.78294C94.1469 7.70566 94.0845 8.44278 94.0875 9.13234C94.0875 10.2172 93.386 10.0775 92.6846 10.1013C91.7929 10.128 91.9237 9.56331 91.9683 9.0937C91.995 8.45467 92.2655 7.79186 91.2519 7.78294C90.4792 7.78294 90.2503 8.11583 90.176 8.83511C90.0214 10.351 89.8124 11.8599 89.5488 13.3618C89.4121 14.1554 89.7628 14.2357 90.4108 14.2624Z" fill="white"/>
<path d="M202.3 14.2465C203.405 14.2465 203.236 13.3549 203.251 12.7604C203.275 11.7409 203.75 11.5418 204.651 11.5715C205.813 11.6042 205.329 12.383 205.397 13.1052C205.623 13.346 204.722 14.2228 205.902 14.2465C206.428 14.2465 207.017 14.3862 207.115 13.56C207.313 11.9431 207.533 10.3311 207.775 8.72412C207.917 7.79381 207.37 7.77003 206.714 7.81461C205.792 7.87406 205.979 8.61117 205.938 9.14915C205.846 10.2786 205.046 10.1181 204.318 10.1003C203.278 10.0765 203.863 9.37504 203.836 8.93515C203.81 8.49526 204.16 7.88595 203.328 7.81164C202.621 7.7522 202.113 7.83542 202.029 8.75979C201.892 10.282 201.668 11.7953 201.361 13.2925C201.164 14.2228 201.616 14.2525 202.3 14.2465Z" fill="white"/>
<path d="M243.314 14.2586C244.401 14.3715 244.502 13.7117 244.568 12.9062C244.609 12.3118 244.502 11.6638 245.495 11.5479C247.151 11.3547 246.755 12.3326 246.642 13.2391C246.583 13.7266 246.491 14.2586 247.29 14.2467C247.867 14.2467 248.346 14.2467 248.432 13.468C248.595 11.9046 248.848 10.3501 249.05 8.78967C249.092 8.46867 249.306 8.04364 248.872 7.87422C248.667 7.78108 248.444 7.73764 248.22 7.74745C247.996 7.75727 247.777 7.82007 247.582 7.9307C247.151 8.20711 247.237 8.72726 247.228 9.15526C247.21 10.2282 246.458 10.0618 245.769 10.1004C244.829 10.1569 245.046 9.5684 245.139 9.00368C245.091 8.5192 245.48 7.81478 244.44 7.77911C243.548 7.74939 243.394 8.18928 243.314 8.93829C243.156 10.4512 242.927 11.9611 242.66 13.462C242.55 14.0803 242.752 14.1992 243.314 14.2586Z" fill="white"/>
<path d="M114.606 14.24C115.138 14.2192 115.735 14.3678 115.753 13.5118C115.773 13.1674 115.836 12.8269 115.94 12.4982C116.045 12.1267 115.816 11.5263 116.55 11.5471C117.115 11.565 117.486 11.8057 117.584 12.3912C117.641 12.5801 117.684 12.7728 117.712 12.9679C117.733 13.809 117.944 14.454 118.987 14.2311C120.152 13.9814 119.581 13.0927 119.406 12.6023C118.966 11.3094 118.895 10.1294 119.763 8.99695C119.849 8.88697 119.849 8.71458 119.92 8.58678C120.339 7.82291 119.867 7.81994 119.293 7.7813C118.164 7.70699 118.167 8.69675 117.789 9.31795C117.519 9.76973 117.21 10.2096 116.642 10.0372C116.009 9.84998 116.398 9.29714 116.392 8.90778C116.392 8.46491 116.799 7.89722 115.943 7.8021C115.227 7.72185 114.683 7.82588 114.582 8.71161C114.413 10.2275 114.19 11.7344 113.931 13.6723C113.925 13.7377 113.8 14.2757 114.606 14.24Z" fill="white"/>
<path d="M130.582 12.1242H131.622C131.567 12.4123 131.536 12.7046 131.53 12.998C131.572 13.4528 131.064 14.1215 132.024 14.2434C132.862 14.3474 133.269 14.0977 133.349 13.1793C133.477 11.711 133.739 10.2546 133.962 8.79525C134.027 8.34942 134.19 7.86197 133.495 7.81739C132.975 7.78172 132.345 7.61825 132.196 8.41183C132.104 8.89334 132.056 9.38376 132.009 9.87418C131.935 10.6291 131.414 10.6678 130.82 10.6499C130.225 10.6321 129.928 10.3111 129.973 9.70773C130.003 9.36593 130.065 9.02709 130.124 8.68825C130.202 8.26619 130.225 7.85603 129.652 7.82928C129.191 7.81144 128.686 7.63905 128.368 8.24242C127.319 10.2308 128.359 12.0915 130.582 12.1242Z" fill="white"/>
<path d="M145.499 14.2494C146.04 14.1008 146.575 14.0473 146.352 13.218C146.15 12.478 145.781 12.5315 145.148 12.6474C143.644 12.9446 143.035 12.2045 143.392 10.7095C143.665 9.57705 144.396 9.17877 145.49 9.43141C146.269 9.60974 146.593 9.24118 146.7 8.53973C146.827 7.74614 146.12 7.82342 145.731 7.73128C143.207 7.13683 141.54 8.62296 141.504 11.4198C141.48 13.9908 142.868 14.9717 145.499 14.2494Z" fill="white"/>
<path d="M256.803 14.2491C257.457 14.2491 257.906 14.2075 257.992 13.3574C258.117 11.9486 258.382 10.5516 258.566 9.29138C258.536 8.60776 259.128 7.83795 257.936 7.76959C256.955 7.71312 256.833 8.26596 256.747 9.03279C256.604 10.3911 256.357 11.7405 256.2 13.0988C256.129 13.5774 255.855 14.2342 256.803 14.2491Z" fill="white"/>
<path d="M215.453 14.2446C216.092 14.2624 216.591 14.2446 216.671 13.3826C216.817 11.8162 217.07 10.2588 217.289 8.69836C217.355 8.23172 217.435 7.78291 216.731 7.79182C216.19 7.79182 215.607 7.70563 215.503 8.49625C215.301 10.0567 215.078 11.6171 214.858 13.2191C214.909 13.6174 214.611 14.2208 215.453 14.2446Z" fill="white"/>
<path d="M260.834 11.5152C261.726 11.6014 261.636 10.8167 261.749 10.3025C261.999 9.15818 262.216 8.00198 262.376 6.84281C262.436 6.42669 263.01 5.72524 261.969 5.65391C261.235 5.60041 260.611 5.60932 260.587 6.64664C260.56 7.8177 260.391 8.98282 260.29 10.2133C260.45 10.6176 259.82 11.4201 260.834 11.5152Z" fill="white"/>
<path d="M173.317 14.4338C173.489 14.4462 173.663 14.4218 173.825 14.3624C173.988 14.3031 174.136 14.21 174.26 14.0893C174.384 13.9686 174.481 13.823 174.545 13.6621C174.609 13.5013 174.638 13.3287 174.631 13.1558C174.654 12.5316 174.259 12.1838 173.552 12.166C172.898 12.2641 172.434 12.6237 172.392 13.3757C172.357 14.0088 172.663 14.4398 173.317 14.4338Z" fill="white"/>
<path d="M260.537 14.4285C261.274 14.3809 261.654 13.8965 261.746 13.1742C261.66 12.5471 261.28 12.1607 260.668 12.2023C260.505 12.202 260.345 12.2349 260.196 12.2988C260.047 12.3628 259.913 12.4566 259.802 12.5743C259.69 12.6921 259.604 12.8313 259.549 12.9835C259.493 13.1358 259.469 13.2978 259.479 13.4595C259.469 13.597 259.491 13.7348 259.542 13.8627C259.594 13.9906 259.673 14.1053 259.775 14.1984C259.876 14.2915 259.998 14.3605 260.13 14.4003C260.261 14.4401 260.401 14.4498 260.537 14.4285Z" fill="white"/>
<path d="M14.2467 61.0087C19.7781 60.9344 25.3124 60.7293 30.8437 60.8036C34.0567 60.8482 37.2578 60.7858 40.4649 60.6758C49.9374 60.3489 55.4926 55.623 57.6147 46.6736C58.9433 41.0679 57.7247 37.4953 51.9675 34.9183C51.7436 34.8005 51.5281 34.6674 51.3225 34.5201C56.8598 32.0026 59.6983 28.8193 60.9288 23.7932C62.5903 17.0165 58.872 11.4228 52.0121 10.2933C50.6358 10.0884 49.2453 9.99398 47.8539 10.0109C44.8816 9.99608 41.9094 10.1269 38.955 9.96933C35.7986 9.84015 32.6369 9.96439 29.5003 10.3409C25.7345 10.7451 23.0565 12.6087 21.5347 16.1011C21.0356 17.1772 20.655 18.3043 20.3993 19.4627C19.5581 23.713 18.7527 27.9692 17.9026 32.2166C16.1014 41.2017 14.3359 50.1897 12.7576 59.2164C12.4426 61.0146 12.4604 61.0354 14.2467 61.0087ZM37.133 21.4927C39.3117 21.0736 41.5171 20.7942 43.6927 21.5878C45.2443 22.1496 45.8744 23.1037 45.7733 24.7295C45.6158 27.0776 43.5204 29.1879 41.1634 29.3276C40.0309 29.39 38.8955 29.3276 37.7631 29.3276V29.4137C37.5654 29.4318 37.3664 29.4318 37.1687 29.4137C35.8579 29.17 33.7536 30.1568 33.3523 28.8193C32.4725 25.9124 34.7909 21.9415 37.1211 21.4927H37.133ZM29.2001 48.662C29.7262 46.2545 30.175 43.8321 30.6684 41.4216C30.7665 40.955 30.8051 40.4527 31.5601 40.5062C33.8725 40.6696 36.1759 40.1733 38.5092 40.5062C41.2882 40.8955 42.5841 41.808 42.7357 43.7756C42.8013 44.9695 42.4619 46.1506 41.7725 47.1275C41.0831 48.1045 40.084 48.8201 38.9372 49.1584C37.1538 49.6339 35.3051 49.5269 33.4801 49.5002C32.2912 49.5002 31.1023 49.4853 29.9134 49.5002C29.3011 49.518 29.0396 49.3872 29.2001 48.662Z" fill="white"/>
<path d="M102.424 72.5861C102.258 73.4391 102.362 73.8671 103.393 73.8166C105.177 73.7304 106.96 73.8434 108.743 73.7304C113.163 73.4332 116.471 71.5191 118.052 67.1915C118.442 66.1237 118.76 65.0315 119.007 63.922C119.426 62.0109 119.753 60.0819 120.13 58.0934C125.593 62.6766 130.346 63.3662 135.785 60.4118C138.003 59.1928 139.934 57.5123 141.447 55.4838C146.571 48.713 148.411 40.9614 147.689 32.6391C147.225 27.2891 144.086 23.8116 139.456 22.8307C134.997 21.8856 130.931 22.8813 127.293 25.6068C126.598 26.1299 125.953 26.7184 124.969 27.5417C125.168 26.8254 125.245 26.555 125.317 26.2845C126.125 23.2885 126.122 23.2885 123.04 23.3331C122.543 23.3331 122.05 23.3331 121.554 23.3509C115.166 23.5827 111.849 26.0883 110.396 32.2825C109.079 37.8911 108.089 43.577 106.981 49.2243C105.447 57.0175 103.952 64.8048 102.424 72.5861ZM123.869 39.6744C124.052 38.4578 124.314 37.2545 124.654 36.0721C124.903 35.0051 125.49 34.0471 126.327 33.3406C127.59 32.3419 128.978 31.7267 130.572 32.4489C132.084 33.1474 132.444 34.4938 132.355 36.0156C132.331 36.3604 132.355 36.7081 132.355 37.0529C132.236 41.5856 131.326 45.931 129.314 50.0268C129.033 50.6325 128.62 51.168 128.106 51.5942C127.592 52.0204 126.989 52.3267 126.342 52.4908C124.003 53.1447 122.27 51.9231 122.217 49.5185C122.133 46.1569 123.397 42.9796 123.869 39.6744Z" fill="white"/>
<path d="M71.0718 60.4968C79.4951 63.2253 87.4697 62.0989 94.7814 57.052C97.8103 54.9639 100.132 52.003 101.436 48.5633C98.0093 48.5633 94.7546 48.6613 91.509 48.5276C90.5315 48.4576 89.5505 48.5998 88.6332 48.9446C87.7158 49.2894 86.884 49.8285 86.1946 50.5249C83.9951 52.6055 81.2577 52.2221 78.6451 51.4612C77.4562 51.1164 76.9836 49.9543 76.8825 48.7624C76.8172 47.9807 76.9152 47.1871 76.9093 46.3846C76.9093 45.3414 77.3373 44.9995 78.4341 45.0144C83.2313 45.0828 88.0285 45.0649 92.8257 45.0352C94.9449 45.0352 97.0849 45.1303 99.1387 44.411C100.898 43.7958 102.435 42.8298 102.91 40.9514C104.444 34.8672 102.316 26.9818 95.1173 23.8966C90.326 21.8487 85.3921 21.816 80.4373 22.9485C69.9037 25.3768 61.8965 35.2149 61.5042 46.0042C61.2634 52.6739 64.9936 58.5262 71.0718 60.4968ZM78.6778 36.9299C79.837 33.3424 81.5371 31.0062 85.6804 31.3778C88.504 31.6334 89.363 33.6694 89.0836 36.2106C88.9825 37.1201 88.3881 37.5719 87.4548 37.566C86.1262 37.566 84.7976 37.566 83.469 37.566H79.3347C78.9096 37.56 78.4816 37.5333 78.6778 36.9299Z" fill="white"/>
<path d="M212.037 36.1396C211.181 36.1396 210.952 35.9761 211.145 35.0548C211.906 31.5891 212.545 28.0967 213.273 24.6222C213.467 23.7038 213.321 23.3679 212.26 23.2758C210.237 23.1453 208.205 23.218 206.197 23.4927C202.208 23.9534 199.063 25.7546 197.577 29.7344C197.147 30.7828 196.803 31.8643 196.549 32.9682C194.804 41.9147 193.125 50.876 191.362 59.8195C191.13 61.0084 191.529 61.0975 192.512 61.0827C196.079 61.0351 199.646 61.0649 204.021 61.0649C207.588 60.9103 211.995 61.3056 216.385 60.732C223.653 59.7838 227.701 56.5025 229.493 49.5831C231.318 42.5478 228.818 37.4474 221.067 36.3447C218.065 35.9078 215.048 36.1693 212.037 36.1396ZM216.7 47.1191C216.662 51.0008 215.425 52.267 211.511 52.4216C211.065 52.4364 210.619 52.4216 210.176 52.4216C207.314 52.484 207.314 52.484 207.718 49.7109C208.429 44.8483 209.772 43.8823 214.706 44.6937C216.721 45.0237 216.721 45.0237 216.7 47.1191Z" fill="white"/>
<path d="M70.2248 14.2254C70.8193 14.2254 71.4137 14.273 72.0082 14.2254C74.1928 14.0263 75.352 11.9249 74.2403 10.0465C73.9193 9.50552 74.1096 9.35096 74.3741 8.97646C75.5214 7.35064 74.7932 5.82885 72.7839 5.65349C71.8923 5.57324 71.0006 5.65349 70.1089 5.60594C69.2826 5.57324 68.8398 5.86749 68.7328 6.75322C68.5336 8.41471 68.1889 10.0584 68.0105 11.7228C67.6955 14.6237 67.2883 14.2046 70.2248 14.2254ZM71.6307 7.33281C72.1419 7.38631 72.8612 7.24959 72.8196 8.01643C72.781 8.83974 72.0736 8.9081 71.3335 8.86054C71.0363 8.74165 70.3408 9.1756 70.3645 8.29582C70.3883 7.41603 70.8906 7.25553 71.6307 7.33281ZM69.9395 11.6663C70.0138 10.8163 70.2546 10.3229 70.8758 10.4774C71.8566 10.5755 72.7394 10.3259 72.6829 11.4345C72.6324 12.4391 71.8685 12.5402 71.0749 12.5194C70.4923 12.5164 69.8474 12.662 69.9336 11.6663H69.9395Z" fill="white"/>
<path d="M182.09 14.2105C182.729 14.2551 183.371 14.2551 184.01 14.2105C185.942 13.94 187.161 11.8089 186.189 10.2574C185.8 9.63618 185.817 9.42218 186.245 8.86934C187.301 7.50508 186.65 5.96843 184.923 5.71282C183.957 5.57015 182.952 5.67715 181.971 5.61176C180.99 5.54637 180.619 5.99221 180.506 6.86308C180.289 8.51862 180.039 10.1682 179.84 11.8267C179.546 14.2402 179.561 14.2432 182.09 14.2105ZM183.386 7.33864C183.891 7.38322 184.599 7.2138 184.599 8.01631C184.599 8.94068 183.838 8.85448 183.202 8.86934C182.771 8.8099 182.185 9.06848 182.212 8.21545C182.239 7.36242 182.741 7.27622 183.386 7.33864ZM181.668 11.797C181.787 10.9499 181.965 10.2693 183.08 10.4238C183.775 10.5189 184.614 10.4476 184.542 11.4284C184.459 12.5311 183.529 12.5965 182.298 12.6322C182.081 12.6441 181.543 12.6649 181.668 11.8V11.797Z" fill="white"/>
<path d="M194.415 16.8253C195.47 17.0125 195.696 16.3705 195.711 15.5621C195.711 14.5664 196.139 14.3732 197.132 14.4088C199.212 14.4832 200.553 12.7771 200.511 10.4171C200.482 8.48814 199.64 7.67969 197.664 7.67969C195.286 7.67969 194.989 7.93827 194.65 10.2299C194.409 11.93 194.115 13.6242 193.919 15.3302C193.862 15.8415 193.301 16.6261 194.415 16.8253ZM196.255 11.505C196.255 11.1661 196.413 10.8303 196.427 10.4914C196.457 9.79593 196.573 9.16284 197.471 9.24903C198.288 9.32928 198.695 9.81673 198.585 10.5747C198.622 10.8833 198.597 11.1963 198.511 11.495C198.424 11.7937 198.279 12.072 198.083 12.3134C197.888 12.539 197.626 12.6962 197.335 12.762C197.044 12.8277 196.739 12.7987 196.466 12.679C195.91 12.4591 196.24 11.9092 196.255 11.505Z" fill="white"/>
<path d="M82.8608 16.8385C83.8387 16.8771 83.8357 16.1875 83.9041 15.5634C83.9725 14.9392 83.9635 14.3982 84.9652 14.4042C87.3697 14.422 88.6359 13.0429 88.6983 10.6027C88.7607 8.16248 87.1914 7.15192 84.4123 7.80581C83.5623 8.00495 83.0511 8.33487 82.947 9.33057C82.7093 11.53 82.3526 13.7206 81.9959 15.9081C81.8532 16.6988 82.1951 16.8117 82.8608 16.8385ZM84.4807 11.5479C84.4807 11.1555 84.5639 10.7662 84.5877 10.3738C84.6323 9.69913 84.8849 9.21168 85.6518 9.25329C86.5137 9.30085 86.7991 9.88638 86.8407 10.5938C86.7158 11.2833 86.6772 11.9283 86.1541 12.4009C85.9531 12.5872 85.7035 12.7126 85.4341 12.7626C85.1647 12.8125 84.8867 12.785 84.6323 12.6833C83.9903 12.4485 84.4718 11.9343 84.4807 11.5479Z" fill="white"/>
<path d="M123.743 14.452C126.088 14.4341 126.418 14.1548 126.668 11.8542C126.712 11.4649 126.736 11.0725 126.802 10.6861C127.301 7.7466 127.117 7.53854 124.094 7.68121C123.946 7.68016 123.798 7.6881 123.651 7.70499C121.868 7.96654 120.631 9.86283 120.813 12.0772C120.943 13.6881 121.903 14.4668 123.743 14.452ZM123.461 9.56858C123.64 9.3957 123.863 9.27626 124.107 9.22374C124.35 9.17122 124.603 9.18771 124.837 9.27136C125.452 9.50914 125.075 10.0144 125.033 10.4157C124.992 10.8169 124.917 11.3073 124.885 11.7324C124.837 12.3922 124.647 12.8975 123.844 12.847C122.953 12.7905 122.7 12.2169 122.691 11.4946C122.828 10.7634 122.881 10.059 123.461 9.56858Z" fill="white"/>
<path d="M159.376 14.1962C159.953 14.3032 160.535 14.4013 160.809 14.4489C162.699 14.4697 164.078 13.8544 164.319 12.8201C164.652 11.4736 163.704 10.145 164.188 8.74215C164.233 8.6084 163.962 8.31712 163.787 8.1477C162.369 6.87558 159.504 7.72564 159.103 9.56843C158.853 10.7187 158.752 11.8957 158.55 13.0578C158.422 13.7593 158.746 14.0833 159.376 14.1962ZM160.524 12.1156C160.651 11.3369 160.746 10.5522 160.913 9.78243C160.952 9.58493 161.062 9.40869 161.223 9.28748C161.383 9.16627 161.583 9.10862 161.784 9.12557C162.114 9.12557 162.432 9.23257 162.479 9.5506C162.539 9.96077 162.152 10.0886 161.849 10.2669C161.136 10.686 160.812 11.1586 161.9 11.4855C162.319 11.6133 162.726 11.7471 162.548 12.2464C162.343 12.8201 161.816 12.9925 161.219 12.9865C160.622 12.9806 160.446 12.6477 160.524 12.1067V12.1156Z" fill="white"/>
<path d="M168.066 14.4519C170.2 14.4282 171.516 12.945 171.531 10.5494C171.531 8.555 170.714 7.64252 168.88 7.64847C166.799 7.64847 165.361 9.31292 165.343 11.7086C165.328 13.4651 166.327 14.4698 168.066 14.4519ZM168.823 9.26239C169.653 9.26239 169.772 10.0322 169.694 10.7039C169.587 11.6372 169.471 12.6953 168.238 12.7578C167.21 12.8083 167.346 11.9255 167.325 11.1706C167.432 10.2819 167.587 9.26239 168.823 9.26239Z" fill="white"/>
<path d="M99.3634 14.4517C101.539 14.5023 102.93 12.9656 102.954 10.5105C102.954 8.59047 102.148 7.67799 100.398 7.6453C98.2221 7.60369 96.7568 9.25626 96.7627 11.744C96.7657 13.4739 97.6663 14.4101 99.3634 14.4517ZM98.7095 11.4587C98.8195 10.3114 98.98 9.29192 100.196 9.25923C101.016 9.23545 101.197 10.0053 101.087 10.674C100.951 11.5657 100.909 12.6951 99.6458 12.7546C98.6798 12.814 98.6947 12.0026 98.7095 11.4587Z" fill="white"/>
<path d="M219.447 14.1359C220.662 14.7304 221.854 14.451 223.014 13.9784C223.486 13.7852 223.263 13.4047 223.168 13.0867C223.046 12.6855 222.871 12.3674 222.327 12.5368C221.902 12.6565 221.464 12.7214 221.022 12.73C220.668 12.7509 220.27 12.6617 220.232 12.2367C220.181 11.666 220.671 11.8651 220.972 11.8235C221.509 11.7831 222.044 11.7106 222.574 11.6065C223.763 11.2885 224.232 10.4384 224.092 9.25549C223.953 8.07254 223.138 7.74559 222.113 7.6594C219.801 7.46323 218.311 8.98799 218.249 11.9751C218.249 12.6647 218.389 13.6277 219.447 14.1359ZM221.554 9.1901C221.637 9.17516 221.721 9.17672 221.803 9.19469C221.885 9.21266 221.962 9.24668 222.031 9.29478C222.099 9.34289 222.158 9.40411 222.202 9.47492C222.247 9.54572 222.277 9.6247 222.291 9.70727C222.217 10.3017 221.789 10.3879 221.34 10.376C221.043 10.376 220.541 10.5514 220.55 10.0491C220.558 9.49327 221.064 9.26738 221.554 9.1901Z" fill="white"/>
<path d="M138.451 14.3173C138.989 14.1806 139.884 14.3173 139.783 13.3216C139.667 12.1832 138.891 12.6528 138.243 12.7004C137.711 12.7361 136.846 13.0482 136.82 12.1892C136.802 11.4966 137.607 11.9544 138.023 11.8266C138.255 11.7552 138.514 11.779 138.754 11.7285C140.03 11.461 140.773 10.7625 140.657 9.36852C140.538 7.91806 139.495 7.71595 138.428 7.63867C137.01 7.63867 135.904 8.12018 135.339 9.38041C134.721 10.7595 134.326 12.2397 135.339 13.5861C136.106 14.6205 137.319 14.6086 138.451 14.3173ZM138.181 9.19018C138.543 9.16938 138.882 9.36257 138.826 9.78463C138.737 10.4564 138.16 10.3464 137.696 10.3969C137.459 10.3226 137.007 10.5307 137.048 10.0789C137.108 9.45174 137.616 9.21991 138.181 9.19018Z" fill="white"/>
<path d="M105.02 14.1294C106.209 14.706 107.43 14.4801 108.587 13.9778C109.009 13.7965 108.922 13.416 108.777 13.0861C108.631 12.7562 108.572 12.4084 108.069 12.5184C107.591 12.6262 107.105 12.6987 106.616 12.7354C106.194 12.7651 105.751 12.6254 105.775 12.1409C105.799 11.6564 106.298 11.8913 106.589 11.8437C107.174 11.7832 107.756 11.6919 108.331 11.5702C109.469 11.2403 109.859 10.3576 109.725 9.2727C109.597 8.24431 108.878 7.78658 107.882 7.68553C105.463 7.41505 103.908 8.91604 103.834 11.6237C103.819 12.6462 103.98 13.63 105.02 14.1294ZM106.111 10.0336C106.176 9.51643 106.616 9.2192 107.163 9.17462C107.555 9.14193 107.912 9.31134 107.918 9.69476C107.918 10.3814 107.347 10.3576 106.842 10.3992C106.577 10.2922 106.021 10.6072 106.111 10.0336Z" fill="white"/>
<path d="M240.41 14.1698C240.814 14.0628 241.328 13.938 241.082 13.2781C240.903 12.7966 240.785 12.3092 240.065 12.5945C239.786 12.6942 239.491 12.7425 239.194 12.7372C238.725 12.7372 238.053 12.8709 238.08 12.1427C238.101 11.5631 238.704 11.902 239.043 11.8277C239.34 11.7653 239.637 11.8069 239.935 11.7534C241.373 11.4977 242.077 10.6388 241.938 9.31612C241.783 7.8835 240.749 7.6695 239.465 7.63086C238.092 7.63086 236.989 8.30556 236.493 9.71143C236.029 11.0192 235.669 12.4429 236.698 13.6378C237.726 14.8326 239.102 14.5205 240.41 14.1698ZM238.374 9.92246C238.44 9.71073 238.572 9.52568 238.75 9.39457C238.929 9.26347 239.145 9.19325 239.367 9.19426C239.741 9.15562 240.086 9.31612 240.089 9.72629C240.089 10.4604 239.468 10.3207 239.093 10.4129C238.737 10.3386 238.243 10.4902 238.374 9.92246Z" fill="white"/>
<path d="M188.655 14.0722C189.844 14.7291 191.054 14.4675 192.222 14.0365C192.724 13.8552 192.659 13.4421 192.492 13.0498C192.326 12.6574 192.162 12.3899 191.618 12.5712C191.141 12.6871 190.65 12.7371 190.159 12.7198C190.008 12.734 189.857 12.6879 189.74 12.5916C189.622 12.4954 189.548 12.3567 189.532 12.2056C189.481 11.7331 189.88 11.8371 190.147 11.8341C190.789 11.8552 191.431 11.7709 192.046 11.5844C193.17 11.201 193.58 10.3628 193.452 9.27501C193.333 8.24364 192.614 7.78889 191.612 7.67594C189.217 7.4025 187.647 8.93023 187.57 11.6409C187.549 12.6277 187.707 13.5461 188.655 14.0722ZM189.829 10.0389C189.897 9.52468 190.373 9.25718 190.89 9.18584C191.276 9.13531 191.633 9.32851 191.633 9.70301C191.633 10.3718 191.068 10.3688 190.563 10.4015C190.308 10.3004 189.755 10.5977 189.829 10.0389Z" fill="white"/>
<path d="M78.6707 14.4541C78.9293 14.4035 79.4703 14.3322 79.9874 14.1895C80.4422 14.0647 80.995 13.9993 80.7602 13.2384C80.5551 12.5726 80.2371 12.4003 79.5713 12.644C79.1408 12.75 78.6941 12.7742 78.2546 12.7153C78.1795 12.718 78.1047 12.7038 78.0358 12.6735C77.967 12.6433 77.9058 12.598 77.857 12.5408C77.8081 12.4836 77.7728 12.4162 77.7536 12.3435C77.7345 12.2708 77.732 12.1947 77.7464 12.1209C77.791 11.7701 78.1001 11.8653 78.326 11.8236C78.9134 11.7919 79.4981 11.7224 80.0766 11.6156C81.2804 11.3184 81.7351 10.4713 81.6162 9.28237C81.4974 8.09347 80.7246 7.74275 79.6754 7.6625C77.2411 7.47525 75.6658 9.1724 75.7609 11.9069C75.8114 13.5416 76.7328 14.4303 78.6707 14.4541ZM78.0495 10.0225C78.0941 9.47259 78.5846 9.23184 79.1077 9.18726C79.4911 9.15457 79.8091 9.32398 79.7943 9.75496C79.7734 10.3791 79.2563 10.3345 78.8699 10.4089C78.531 10.3316 78.0109 10.5456 78.0495 10.0225Z" fill="white"/>
<path d="M250.857 14.2231C251.392 14.2945 251.921 14.4074 252.159 14.449C254.448 14.4758 255.765 13.3849 255.797 11.6848C255.824 10.2403 255.114 9.65775 252.923 9.60425C252.141 9.58939 252.281 9.22381 252.329 8.80472C252.388 8.30241 252.546 7.79713 251.734 7.7793C251.083 7.7793 250.587 7.82983 250.501 8.67097C250.352 10.0858 250.141 11.4916 249.906 12.8975C249.799 13.6762 250.049 14.1131 250.857 14.2231ZM251.832 12.2525C251.921 11.5897 252.1 11.0161 252.953 11.0636C253.443 11.0844 253.827 11.236 253.824 11.8037C253.824 12.6359 253.211 12.8083 252.635 12.9094C252.124 12.8886 251.749 12.8202 251.832 12.2525Z" fill="white"/>
<path d="M211.045 14.4511C213.072 14.5075 214.362 13.494 214.454 11.776C214.531 10.2899 214.023 9.853 211.556 9.60928C210.887 9.54389 211.003 9.21397 211.036 8.84541C211.089 8.25096 211.131 7.77243 210.281 7.7754C209.52 7.7754 209.258 8.09046 209.205 8.82163C209.137 9.7995 208.976 10.7714 208.813 11.7404C208.42 14.0855 208.652 14.3857 211.045 14.4511ZM210.519 12.2367C210.593 11.5353 210.852 11.027 211.669 11.0805C212.133 11.1132 212.561 11.2351 212.528 11.8266C212.501 12.6618 211.898 12.8134 211.253 12.8936C210.816 12.8728 210.462 12.7955 210.519 12.2367Z" fill="white"/>
</svg>
